<?xml version="1.0" encoding="utf-8"?>
<!-- Generator: Adobe Illustrator 16.0.2, SVG Export Plug-In . SVG Version: 6.00 Build 0)  -->
<!DOCTYPE svg PUBLIC "-//W3C//DTD SVG 1.1//EN" "http://www.w3.org/Graphics/SVG/1.1/DTD/svg11.dtd">
<svg version="1.1" id="Layer_1" xmlns="http://www.w3.org/2000/svg" xmlns:xlink="http://www.w3.org/1999/xlink" x="0px" y="0px"
	 width="1573.23px" height="1573.23px" viewBox="0 0 1573.23 1573.23" enable-background="new 0 0 1573.23 1573.23"
	 xml:space="preserve">
<linearGradient id="SVGID_1_" gradientUnits="userSpaceOnUse" x1="-25.054" y1="793.2751" x2="230.0232" y2="793.2751">
	<stop  offset="0" style="stop-color:#271A61"/>
	<stop  offset="1" style="stop-color:#8B3F96"/>
</linearGradient>
<path fill="url(#SVGID_1_)" d="M230.023,1417.831c0-23.418-18.88-42.42-42.249-42.636c5.219-7.075,8.308-15.819,8.308-25.286
	c0-16.276-9.12-30.419-22.528-37.606c-1.002-1.857-2.138-3.631-3.395-5.31c21.318-2.362,37.9-20.43,37.9-42.379
	c0-23.552-19.094-42.646-42.647-42.646c-16.708,0-31.162,9.612-38.158,23.604c-6.909-4.82-15.305-7.655-24.368-7.655
	c-8.718,0-16.821,2.621-23.575,7.111c-0.5-2.548-1.233-5.013-2.167-7.376c21.334-2.348,37.932-20.422,37.932-42.381
	c0-10.178-3.57-19.518-9.519-26.85c0.542-0.669,1.058-1.359,1.56-2.061c5.966,10.298,17.098,17.23,29.856,17.23
	c19.048,0,34.49-15.441,34.49-34.49c0-19.047-15.441-34.488-34.49-34.488c-1.642,0-3.255,0.122-4.835,0.345
	c0.666-2.396,1.135-4.872,1.374-7.417c14.324-6.876,24.212-21.515,24.212-38.465c0-11.165-4.295-21.322-11.316-28.924
	c7.021-7.602,11.316-17.76,11.316-28.923c0-1.048-0.051-2.082-0.125-3.111c11.426-7.65,18.951-20.674,18.951-35.459
	c0-15.569-8.347-29.185-20.806-36.63c9.458-6.149,15.718-16.805,15.718-28.928c0-0.008,0-0.017,0-0.024
	c18.6-0.513,33.523-15.741,33.523-34.466c0-19.047-15.441-34.488-34.49-34.488c-3.077,0-6.058,0.408-8.897,1.165
	c-0.249-0.275-0.506-0.541-0.764-0.808c6.546-6.277,10.627-15.104,10.627-24.889c0-19.049-15.441-34.49-34.49-34.49
	c-0.324,0-0.645,0.016-0.967,0.024c0-0.008,0-0.016,0-0.024c0-11.534-5.667-21.738-14.363-28c5.174-4.588,9.229-10.41,11.688-17.014
	c0.885,0.055,1.776,0.092,2.675,0.092c23.554,0,42.648-19.094,42.648-42.647c0-5.903-1.2-11.525-3.369-16.637
	c12.455-7.446,20.797-21.059,20.797-36.625c0-22.149-16.886-40.35-38.487-42.442c-6.46-9.132-16.414-15.612-27.922-17.487
	c2.71-5.605,4.229-11.893,4.229-18.535c0-13.182-5.982-24.965-15.38-32.788c15.39-6.437,26.204-21.633,26.204-39.357
	c0-23.441-18.915-42.459-42.314-42.639c-0.843-5.64-2.813-10.904-5.638-15.593c0.802-0.558,1.583-1.144,2.333-1.766
	c5.971,4.951,13.637,7.929,22,7.929c19.048,0,34.49-15.441,34.49-34.49c0-14.587-9.062-27.051-21.859-32.092
	c1.367-4.025,2.147-8.319,2.244-12.784c11.602-5.554,19.615-17.402,19.615-31.124c0-18.95-15.285-34.325-34.199-34.482
	c0.885-3.42,1.366-7.002,1.366-10.7c0-5.235-0.948-10.247-2.673-14.88c6.958,4.935,15.455,7.846,24.634,7.846
	c23.554,0,42.648-19.094,42.648-42.647c0-23.553-19.094-42.646-42.648-42.646c-5.12,0-10.027,0.904-14.576,2.558
	c-2.123-3.616-4.76-6.89-7.817-9.723c8.406-7.789,13.672-18.919,13.672-31.283c0-12.964-5.792-24.568-14.921-32.39
	c7.906-7.742,12.818-18.529,12.818-30.469c0-23.553-19.093-42.646-42.647-42.646v-0.001c0-4.423-0.674-8.688-1.924-12.7
	c1.118-3.811,1.728-7.84,1.728-12.013c0-23.553-19.094-42.646-42.647-42.646S5.767-4.627,5.767,18.926
	c0,4.423,0.674,8.689,1.923,12.702c-1.117,3.811-1.727,7.838-1.727,12.011c0,4.208,0.619,8.269,1.754,12.109
	C-0.231,63.493-5.175,74.309-5.175,86.286c0,3.813,0.507,7.505,1.446,11.022c-12.745,7.375-21.326,21.145-21.326,36.928
	c0,16.495,9.37,30.792,23.072,37.886c-2.052,4.994-3.191,10.46-3.191,16.195c0,8.253,2.351,15.955,6.41,22.483
	c-8.656,7.805-14.1,19.105-14.1,31.678c0,5.727,1.137,11.187,3.185,16.176c-9.394,7.823-15.375,19.603-15.375,32.783
	c0,15.377,8.141,28.849,20.345,36.353c-0.305,2.055-0.466,4.156-0.466,6.295c0,12.95,5.779,24.542,14.89,32.363
	c-13.435,7.18-22.578,21.336-22.578,37.632c0,19.485,13.073,35.906,30.922,41.001c-0.304,2.055-0.466,4.157-0.466,6.296
	c0,16.671,9.571,31.098,23.513,38.111c-13.941,7.014-23.513,21.44-23.513,38.111c0,14.39,7.134,27.105,18.051,34.83
	c-22.705,0.958-40.819,19.661-40.819,42.6c0,14.148,6.895,26.681,17.501,34.438c-1.459,4.302-2.262,8.906-2.262,13.701
	c0,11.88,4.862,22.621,12.699,30.354c-16.306,5.992-27.938,21.657-27.938,40.041c0,22.332,17.167,40.642,39.023,42.483
	c-2.603,5.515-4.064,11.674-4.064,18.177c0,1.319,0.069,2.622,0.186,3.91c-19.974,3.547-35.145,20.982-35.145,41.976
	c0,23.553,19.094,42.646,42.647,42.646c1.042,0,2.07-0.051,3.093-0.124c-1.988,4.928-3.093,10.305-3.093,15.944
	c0,0.152,0.01,0.302,0.011,0.454c-0.003,0-0.008,0-0.011,0c-23.554,0-42.647,19.094-42.647,42.646s19.094,42.646,42.647,42.646
	c0.002,0,0.005,0,0.008,0c0.141,17.405,10.707,32.323,25.764,38.819c-0.993-0.069-1.993-0.117-3.004-0.117
	c-23.554,0-42.647,19.094-42.647,42.647c0,1.389,0.072,2.761,0.202,4.115c-0.067,0-0.134-0.005-0.202-0.005
	c-23.554,0-42.647,19.094-42.647,42.648c0,23.553,19.093,42.646,42.647,42.646c4.253,0,8.357-0.632,12.234-1.79
	c0.376,9.509,3.863,18.215,9.476,25.132c-5.949,7.331-9.52,16.671-9.52,26.85c0,5.525,1.062,10.799,2.975,15.645
	c-21.334,2.348-37.932,20.422-37.932,42.383c0,17.744,10.84,32.953,26.257,39.378c-6.846,7.566-11.018,17.597-11.018,28.604
	c0,5.212,0.938,10.204,2.649,14.82c-15.054,6.585-25.577,21.602-25.577,39.085c0,14.883,7.629,27.979,19.186,35.607
	c3.278,20.297,20.871,35.797,42.092,35.797c9.36,0,18.011-3.024,25.044-8.137c2.677,4.836,6.267,9.095,10.536,12.549
	c-13.986,6.924-23.627,21.29-23.746,37.926c-6.591-4.173-14.397-6.598-22.775-6.598c-23.554,0-42.647,19.094-42.647,42.646
	c0,11.899,4.878,22.656,12.738,30.392c-1.164,3.884-1.796,7.994-1.796,12.255c0,23.555,19.093,42.648,42.647,42.648
	s42.647-19.094,42.647-42.648c0-11.898-4.878-22.654-12.738-30.39c1.134-3.788,1.759-7.796,1.789-11.946
	c6.59,4.173,14.397,6.598,22.774,6.598c19.118,0,35.296-12.579,40.712-29.912c3.159,0.747,6.449,1.153,9.835,1.153
	c23.554,0,42.648-19.094,42.648-42.647c0-0.297-0.017-0.591-0.022-0.887C215.449,1455.58,230.023,1438.408,230.023,1417.831z
	 M79.919,600.918c1.448,0.398,2.924,0.725,4.429,0.971c-2.709,5.605-4.229,11.892-4.229,18.535c0,0.028,0.002,0.055,0.002,0.083
	c-0.734-0.616-1.489-1.207-2.264-1.773c1.459-4.302,2.263-8.906,2.263-13.701C80.12,603.643,80.048,602.272,79.919,600.918z
	 M107.175,660.117c-4.915,4.513-8.766,10.163-11.14,16.534c-0.886-0.055-1.776-0.092-2.675-0.092c-1.762,0-3.495,0.119-5.201,0.327
	c4.545-6.782,7.2-14.938,7.2-23.716c0-0.028-0.001-0.054-0.002-0.082C98.861,656.031,102.845,658.415,107.175,660.117z
	 M85.745,1383.321c-3.348-6.047-8.121-11.192-13.869-14.986c-0.445-2.755-1.149-5.42-2.094-7.97c1.21-0.53,2.392-1.111,3.541-1.746
	c1.945,9.373,6.972,17.611,13.967,23.628C86.767,1382.594,86.253,1382.952,85.745,1383.321z"/>
<linearGradient id="SVGID_2_" gradientUnits="userSpaceOnUse" x1="-61.0618" y1="789.4929" x2="136.0076" y2="789.4929">
	<stop  offset="0" style="stop-color:#562C7B"/>
	<stop  offset="1" style="stop-color:#8B3F96"/>
</linearGradient>
<path fill="url(#SVGID_2_)" d="M136.008,1395.112c0-17.861-10.981-33.149-26.558-39.506c0.077-1.042,0.129-2.092,0.129-3.154
	c0-9.261-2.96-17.824-7.973-24.817c11.311-7.672,18.746-20.632,18.746-35.329c0-23.561-19.101-42.66-42.661-42.66
	c-8.03,0-15.54,2.222-21.954,6.08c-3.957-4.324-8.796-7.822-14.229-10.228c0.102-1.203,0.166-2.416,0.166-3.645
	c0-9.171-2.904-17.659-7.829-24.615c18.941-4.353,33.074-21.303,33.074-41.565c0-4.011-0.566-7.889-1.601-11.569
	c17.268-5.459,29.788-21.605,29.788-40.679c0-7.211-1.797-14.001-4.956-19.957c11.691-7.608,19.43-20.782,19.43-35.771
	c0-17.588-10.646-32.685-25.843-39.212c6.006-7.35,9.612-16.737,9.612-26.97c0-23.561-19.101-42.66-42.661-42.66
	c-4.688,0-9.193,0.767-13.412,2.164c9.275-7.826,15.171-19.527,15.171-32.612c0-9.937-3.407-19.072-9.104-26.324
	c13.977-7.005,23.577-21.453,23.577-38.151c0-22.527-17.466-40.963-39.593-42.538c8.799-7.814,14.349-19.206,14.349-31.899
	c0-11.199-4.322-21.385-11.381-28.997c4.012-4.326,7.133-9.486,9.083-15.19c3.603,0.988,7.392,1.527,11.309,1.527
	c17.162,0,31.948-10.14,38.719-24.751c17.862-5.092,30.946-21.521,30.946-41.017c0-17.419-10.447-32.39-25.411-39.017
	c0.102-1.202,0.166-2.415,0.166-3.644c0-6.37-1.407-12.409-3.91-17.838c11.104-7.702,18.382-20.533,18.382-35.071
	c0-17.904-11.036-33.223-26.671-39.55c0.927-3.497,1.427-7.167,1.427-10.956c0-8.666-2.591-16.723-7.03-23.453
	c6.474-7.48,10.4-17.227,10.4-27.896c0-23.561-19.101-42.66-42.661-42.66c-1.137,0-2.259,0.058-3.374,0.145
	c0-0.048,0.003-0.096,0.003-0.145c0-11.462-4.529-21.86-11.885-29.525c12.51-7.436,20.899-21.08,20.899-36.69
	c0-17.028-9.98-31.722-24.408-38.563c3.038-3.973,5.395-8.493,6.891-13.391c3.771,1.091,7.751,1.687,11.874,1.687
	c23.56,0,42.661-19.098,42.661-42.659c0-4.998-0.867-9.79-2.447-14.247c0.81,0.045,1.624,0.074,2.445,0.074
	c23.56,0,42.661-19.099,42.661-42.659s-19.101-42.66-42.661-42.66c-3.461,0-6.821,0.423-10.042,1.2c0.011-0.399,0.03-0.797,0.03-1.2
	c0-10.876-4.077-20.796-10.777-28.331c0-0.053,0.004-0.104,0.004-0.157c0-10.999-4.165-21.023-11.001-28.589
	c0.785-0.869,1.531-1.773,2.243-2.705c20.856-2.794,36.946-20.647,36.946-42.268c0-23.56-19.101-42.66-42.661-42.66
	c-4.542,0-8.915,0.717-13.021,2.031c-1.524-1.657-3.183-3.189-4.95-4.588c4.546-6.783,7.201-14.939,7.201-23.718
	c0-23.561-19.101-42.66-42.661-42.66c-23.56,0-42.66,19.1-42.66,42.66c0,13.567,6.341,25.645,16.212,33.458
	c-4.545,6.783-7.2,14.94-7.2,23.719c0,2.05,0.153,4.063,0.433,6.036c-5.904,7.319-9.446,16.624-9.446,26.76
	c0,18.102,11.281,33.56,27.19,39.755c-1.263,4.032-1.946,8.32-1.946,12.768c-23.56,0-42.659,19.1-42.659,42.66
	c0,23.561,19.1,42.659,42.66,42.659c3.816,0,7.512-0.508,11.032-1.448c-0.167,1.536-0.259,3.094-0.259,4.674
	c0,9.894,3.376,18.992,9.028,26.228c-2.911-0.627-5.93-0.966-9.029-0.966c-23.56,0-42.66,19.1-42.66,42.66
	c0,17.028,9.979,31.721,24.407,38.562c-5.486,7.178-8.751,16.144-8.751,25.876c0,11.462,4.529,21.86,11.884,29.525
	c-12.51,7.436-20.898,21.081-20.898,36.69c0,11.835,4.822,22.543,12.606,30.271c-1.189,3.921-1.833,8.079-1.833,12.389
	c0,20.248,14.11,37.187,33.031,41.554c-0.148,0.633-0.284,1.271-0.404,1.914c-19.599,3.854-34.385,21.123-34.385,41.851
	c0,3.053,0.327,6.029,0.937,8.9c-10.089,7.803-16.593,20.018-16.593,33.759c0,4.68,0.764,9.18,2.157,13.394
	c-1.393,4.213-2.157,8.712-2.157,13.393c0,10.242,3.612,19.638,9.627,26.991c-1.918,4.853-2.983,10.135-2.983,15.669
	c0,9.436,3.069,18.152,8.256,25.217c-5.188,7.065-8.258,15.782-8.258,25.219c0,11.2,4.322,21.385,11.38,28.997
	c-7.059,7.611-11.38,17.796-11.38,28.995c0,22.528,17.465,40.964,39.592,42.538c-8.798,7.815-14.348,19.206-14.348,31.899
	c0,9.938,3.407,19.072,9.104,26.323c-13.977,7.006-23.577,21.454-23.577,38.152c0,11.114,4.253,21.232,11.217,28.824
	c-13.111,7.279-21.989,21.259-21.989,37.317c0,12.398,5.293,23.556,13.737,31.35c-8.443,7.794-13.736,18.952-13.736,31.349
	c0,13.352,6.138,25.267,15.742,33.089c-9.604,7.822-15.743,19.738-15.743,33.09c0,18.073,11.246,33.511,27.116,39.726
	c-1.215,3.961-1.872,8.165-1.872,12.522c0,9.172,2.904,17.659,7.829,24.616c-18.942,4.352-33.074,21.302-33.074,41.564
	c0,11.293,4.396,21.554,11.561,29.185c-7.164,7.631-11.56,17.892-11.56,29.185c0,23.56,19.1,42.659,42.66,42.659
	c0.249,0,0.494-0.014,0.742-0.018c0.423,2.259,1.017,4.459,1.782,6.579c-11.977,7.554-19.94,20.893-19.94,36.099
	c0,2.916,0.294,5.765,0.853,8.517c-10.373,7.782-17.083,20.179-17.083,34.144c0,13.203,6.001,25.005,15.422,32.829
	c-14.442,6.836-24.435,21.535-24.435,38.575c0,13.886,6.638,26.217,16.91,34.007c-10.273,7.79-16.913,20.122-16.913,34.011
	c0,23.56,19.1,42.658,42.66,42.658c23.56,0,42.661-19.099,42.661-42.658c0-9.519-3.12-18.307-8.389-25.402
	c0.58,0.023,1.161,0.044,1.747,0.044c23.56,0,42.661-19.099,42.661-42.66c0-0.458-0.021-0.911-0.035-1.363
	c18.362-4.762,31.923-21.445,31.923-41.296c0-7.47-1.926-14.488-5.299-20.595C122.542,1431.523,136.008,1414.892,136.008,1395.112z
	 M28.261,1088.287c0.288-0.271,0.578-0.54,0.858-0.818c0.032,0.062,0.063,0.124,0.095,0.185
	C28.894,1087.86,28.575,1088.071,28.261,1088.287z M53.72,1416.378c0.585-0.559,1.156-1.134,1.709-1.726
	c0.183,0.353,0.365,0.706,0.557,1.055C55.221,1415.908,54.467,1416.135,53.72,1416.378z"/>
<linearGradient id="SVGID_3_" gradientUnits="userSpaceOnUse" x1="1607.655" y1="769.3728" x2="1342.3669" y2="769.3728">
	<stop  offset="0" style="stop-color:#271A61"/>
	<stop  offset="1" style="stop-color:#8B3F96"/>
</linearGradient>
<path fill="url(#SVGID_3_)" d="M1573.188-1.659c-0.866-18.277-15.956-32.831-34.448-32.831c-7.708,0-14.824,2.53-20.567,6.803
	c-5.743-4.273-12.859-6.803-20.568-6.803c-16.682,0-30.596,11.843-33.796,27.58l-8.014-0.385c4.4,4.49,7.32,7.29,7.32,7.29
	l-0.596,0.772c-15.57,3.328-27.248,17.158-27.248,33.722c0,4.169,0.74,8.165,2.095,11.864c-6.323-7.265-15.631-11.864-26.02-11.864
	c-19.048,0-34.489,15.441-34.489,34.489c0,19.048,15.441,34.49,34.489,34.49c2.104,0,4.16-0.199,6.16-0.56
	c-3.879,5.579-6.159,12.352-6.159,19.662c0,15.377,10.065,28.398,23.965,32.849c-0.025,0.544-0.041,1.09-0.041,1.641
	c0,16.11,11.046,29.638,25.977,33.429c0.184,3.052,0.516,5.571,0.874,7.765c-0.447,1.616-0.778,3.279-0.987,4.981
	c-6.319-7.162-15.561-11.685-25.864-11.685c-12.374,0-23.22,6.52-29.306,16.308c-1.691-0.255-3.422-0.389-5.185-0.389
	c-19.048,0-34.489,15.441-34.489,34.489c0,15.321,9.992,28.3,23.813,32.797c-1.233,3.549-1.912,7.357-1.912,11.326
	c0,11.792,5.922,22.197,14.949,28.417c-1.049,2.686-1.771,5.533-2.116,8.496c-6.224-6.115-14.753-9.891-24.168-9.891
	c-19.048,0-34.489,15.441-34.489,34.489c0,19.048,15.441,34.49,34.489,34.49c2.179,0,4.308-0.211,6.374-0.598
	c0.36,0.507,0.733,1.004,1.12,1.49c-15.298,3.53-26.706,17.226-26.706,33.596c0,19.048,15.441,34.49,34.489,34.49
	c7.175,0,13.836-2.192,19.354-5.94c1.08,12.363,8.676,22.858,19.34,28.021c-2.828,5.004-4.45,10.781-4.45,16.94
	c0,13.435,7.687,25.067,18.897,30.761c-11.211,5.694-18.898,17.326-18.898,30.761c0,13.726,8.019,25.577,19.626,31.129
	c-0.106,1.106-0.165,2.226-0.165,3.36c0,6.285,1.689,12.171,4.626,17.245c-2.937,5.074-4.626,10.96-4.626,17.245
	c0,1.134,0.059,2.255,0.166,3.361c-11.607,5.553-19.626,17.403-19.626,31.128c0,6.129,1.606,11.881,4.409,16.869
	c-0.59,0.947-1.166,1.871-1.736,2.785c-0.883-0.068-1.772-0.113-2.673-0.113c-15.91,0-29.296,10.776-33.277,25.425
	c-1.604-0.229-3.241-0.354-4.909-0.354c-19.048,0-34.489,15.441-34.489,34.488c0,19.049,15.441,34.49,34.489,34.49
	c2.166,0,4.281-0.209,6.337-0.591c0.33,1.771,0.672,3.694,1.025,5.76c-4.606,5.863-7.361,13.25-7.361,21.284
	c0,0.649,0.021,1.294,0.058,1.936c-3.568-1.249-7.399-1.936-11.394-1.936c-19.048,0-34.489,15.441-34.489,34.488
	c0,19.049,15.441,34.49,34.489,34.49c3.994,0,7.825-0.687,11.394-1.936c-0.036,0.642-0.058,1.286-0.058,1.936
	c0,12.989,7.184,24.296,17.792,30.178c-8.546,6.277-14.096,16.394-14.096,27.809c0,16.44,11.506,30.185,26.902,33.643
	c0.032,0.283,0.064,0.565,0.096,0.848c-4.714,5.898-7.539,13.372-7.539,21.51c0,8.209,2.873,15.743,7.66,21.665
	c-17.32,1.835-30.815,16.486-30.815,34.294c0,19.048,15.441,34.489,34.489,34.489c19.049,0,34.49-15.441,34.49-34.489
	c0-1.412-0.095-2.801-0.26-4.168l2.583-1.788c-0.337,1.935-0.522,3.921-0.522,5.952c0,11.43,5.563,21.555,14.124,27.83
	c0.396,0.833,0.83,1.644,1.29,2.438c-0.982,1.698-1.832,3.483-2.518,5.349c-2.797-0.731-5.729-1.124-8.755-1.124
	c-18.769,0-34.025,14.995-34.468,33.659c-4.782,2.756-8.838,6.622-11.819,11.252c-6.265-6.426-15.01-10.421-24.692-10.421
	c-19.048,0-34.489,15.441-34.489,34.489c0,18.586,14.703,33.73,33.111,34.454c-1.648,4.028-2.564,8.434-2.564,13.055
	c0,17.141,12.504,31.353,28.887,34.03c-3.619,5.456-5.731,11.997-5.731,19.034c0,5.553,1.32,10.795,3.651,15.442
	c-13.455,4.702-23.11,17.499-23.11,32.558c0,8.936,3.398,17.077,8.972,23.203c1.147,18.011,16.11,32.266,34.41,32.266
	c3.703,0,7.267-0.59,10.609-1.67c-0.026,0.554-0.042,1.109-0.042,1.67c0,7.377,2.323,14.207,6.268,19.814
	c-0.587,1.792-1.024,3.297-1.36,4.582c-1.604-0.229-3.241-0.354-4.908-0.354c-8.614,0-16.483,3.165-22.528,8.387
	c-6.044-5.222-13.914-8.387-22.528-8.387c-19.048,0-34.489,15.441-34.489,34.488c0,13.621,7.898,25.395,19.362,31
	c-5.467,6.104-8.796,14.162-8.796,23c0,8.483,3.068,16.246,8.148,22.254c-15.627,3.284-27.361,17.144-27.361,33.746
	c0,19.049,15.441,34.49,34.489,34.49c10.853,0,20.529-5.017,26.853-12.854c4.232,5.248,9.968,9.232,16.558,11.29
	c1.749,14.17,12.082,25.679,25.644,29.148l-0.072,1.08h123.07l23.47-1573.24L1573.188-1.659z"/>
<linearGradient id="SVGID_4_" gradientUnits="userSpaceOnUse" x1="1625.115" y1="763.4197" x2="1367.1541" y2="763.4197">
	<stop  offset="0" style="stop-color:#562C7B"/>
	<stop  offset="1" style="stop-color:#8B3F96"/>
</linearGradient>
<path fill="url(#SVGID_4_)" d="M1559.899,1601.115h65.216l-26.993-1319.496c0.961-3.17,1.482-6.532,1.482-10.017
	c0-3.977-0.682-7.792-1.92-11.346l-6.569-321.142l-86-20V6.296c-6.574,4.353-11.573,10.894-13.948,18.589
	c-9.702,6.104-16.155,16.899-16.155,29.208c0,16.567,11.684,30.401,27.259,33.725c-0.006,0.255-0.02,0.508-0.02,0.765
	c0,4.248,0.772,8.313,2.177,12.071c-5.165,6.03-8.292,13.857-8.292,22.419c0,6.119,1.601,11.862,4.396,16.844
	c-16.88,2.243-29.906,16.684-29.906,34.177c0,11.47,5.604,21.626,14.218,27.896c-6.079,6.218-9.831,14.721-9.831,24.104
	c0,0.097,0.007,0.192,0.008,0.289c-1.44-0.184-2.905-0.289-4.396-0.289c-19.048,0-34.489,15.441-34.489,34.489
	c0,19.048,15.441,34.49,34.489,34.49c6.489,0,12.558-1.795,17.741-4.911c-0.229,1.604-0.354,3.243-0.354,4.911
	c0,12.706,6.875,23.799,17.104,29.783v4.994c-16.976,2.156-30.104,16.641-30.104,34.202c0,10.629,4.812,20.132,12.371,26.458
	c-7.569,4.546-13.246,11.915-15.583,20.651c-0.118,0.063-0.237,0.125-0.355,0.19c-5.634-11.383-17.361-19.214-30.924-19.214
	c-19.048,0-34.489,15.441-34.489,34.489c0,4.791,0.979,9.353,2.744,13.499c-4.469,5.815-7.131,13.09-7.131,20.99
	c0,2.955,0.373,5.822,1.072,8.558c-0.357-0.011-0.714-0.027-1.073-0.027c-19.048,0-34.489,15.441-34.489,34.489
	c0,19.048,15.441,34.49,34.489,34.49c10.088,0,19.162-4.332,25.469-11.235c4.122,1.741,8.652,2.704,13.408,2.704
	c6.284,0,12.171-1.689,17.245-4.625c1.282,0.742,2.612,1.408,3.992,1.983c-0.066,0.873-0.111,1.752-0.111,2.642
	c0,19.048,15.441,34.49,34.489,34.49c0.359,0,0.714-0.016,1.071-0.027c-0.085,0.331-0.157,0.667-0.231,1.002
	c-15.119,3.659-26.351,17.271-26.351,33.514c0,2.955,0.373,5.822,1.072,8.559c-0.357-0.011-0.713-0.027-1.073-0.027
	c-6.362,0-12.318,1.73-17.436,4.735c0.213-1.549,0.332-3.127,0.332-4.735c0-19.048-15.441-34.489-34.49-34.489
	c-19.048,0-34.489,15.441-34.489,34.489c0,19.048,15.441,34.49,34.489,34.49c6.363,0,12.319-1.73,17.437-4.735
	c-0.213,1.549-0.332,3.127-0.332,4.735c0,14.7,9.199,27.244,22.152,32.208c-0.041,0.07-0.081,0.141-0.121,0.211
	c-1.715-0.262-3.472-0.398-5.26-0.398c-12.771,0-23.912,6.946-29.873,17.262c-1.314-0.152-2.648-0.239-4.003-0.239
	c-19.048,0-34.489,15.441-34.489,34.489c0,19.048,15.441,34.49,34.489,34.49h0.001c0,19.048,15.441,34.489,34.489,34.489
	c14.796,0,27.41-9.318,32.308-22.403c4.304,2.908,9.303,4.86,14.691,5.578c-2.789,4.978-4.385,10.713-4.385,16.825
	c0,6.762,1.953,13.063,5.315,18.387c-1.732-0.268-3.507-0.408-5.314-0.408c-19.048,0-34.489,15.441-34.489,34.488
	c0,2.75,0.331,5.421,0.939,7.984c-5.98-4.983-13.672-7.984-22.065-7.984c-19.048,0-34.489,15.441-34.489,34.488
	c0,0.844,0.041,1.677,0.101,2.505c-12.656,5.108-21.591,17.5-21.591,31.985c0,19.049,15.441,34.49,34.489,34.49
	c19.049,0,34.49-15.441,34.49-34.49c0-0.843-0.041-1.676-0.101-2.503c3.348-1.352,6.437-3.207,9.166-5.482
	c-0.608,2.564-0.939,5.235-0.939,7.985c0,19.049,15.441,34.49,34.489,34.49h0.001l0,0c0,0.328,0.016,0.652,0.024,0.978
	c-2.614-0.634-5.341-0.978-8.15-0.978c-19.048,0-34.489,15.441-34.489,34.488c0,19.049,15.441,34.49,34.489,34.49
	c3.842,0,7.532-0.638,10.983-1.797c0.243,1.077,0.535,2.134,0.877,3.17c-14.359,4.169-24.859,17.412-24.859,33.115
	c0,6.792,1.971,13.119,5.36,18.457c-15.37,3.478-26.851,17.208-26.851,33.629c0,19.049,15.441,34.49,34.489,34.49
	c4.151,0,8.131-0.734,11.817-2.078c0.421,0.835,0.87,1.654,1.355,2.449c-1.647-0.241-3.332-0.371-5.048-0.371
	c-19.048,0-34.489,15.441-34.489,34.488c0,0.891,0.045,1.77,0.111,2.643c-2.186,0.91-4.256,2.038-6.186,3.357
	c-5.535-3.783-12.227-6-19.438-6c-19.048,0-34.489,15.441-34.489,34.49c0,12.896,7.082,24.13,17.564,30.047
	c0.047,0.469,0.11,0.933,0.176,1.396c-5.184-3.116-11.252-4.911-17.741-4.911c-19.048,0-34.489,15.441-34.489,34.49
	c0,19.048,15.441,34.489,34.489,34.489c19.049,0,34.49-15.441,34.49-34.489c0-1.668-0.125-3.307-0.354-4.911
	c5.185,3.116,11.253,4.911,17.741,4.911h0.001l0,0c0,19.048,15.441,34.489,34.489,34.489c0.874,0,1.737-0.043,2.595-0.107
	c-1.668,4.048-2.594,8.479-2.594,13.128c0,0.324,0.016,0.645,0.024,0.966c-15.138,3.646-26.39,17.267-26.39,33.524
	c0,8.851,3.337,16.92,8.817,23.025c-18.974,0.087-34.329,15.491-34.329,34.484c0,0.096,0.007,0.19,0.008,0.286
	c-16.979,2.153-30.111,16.64-30.111,34.204c0,19.048,15.441,34.489,34.489,34.489c11.415,0,21.529-5.548,27.808-14.091
	c2.48,3.376,5.563,6.28,9.087,8.563c-1.288,1.733-2.418,3.59-3.367,5.552c-18.602,0.511-33.526,15.74-33.526,34.466
	c0,19.048,15.441,34.489,34.489,34.489c7.991,0,15.342-2.725,21.189-7.286c0.47,8.143,3.761,15.529,8.915,21.191v39.16h14.195
	c5.694,4.153,12.706,6.609,20.294,6.609C1547.193,1607.724,1554.204,1605.268,1559.899,1601.115z"/>
<ellipse fill="#F4E52A" cx="543.08" cy="765.396" rx="3.965" ry="3.977"/>
<ellipse fill="#F4E52A" cx="861.115" cy="489.138" rx="3.965" ry="3.977"/>
<ellipse fill="#F4E52A" cx="1031.115" cy="1155.138" rx="3.965" ry="3.977"/>
<ellipse fill="#F4E52A" cx="441.115" cy="407.138" rx="3.965" ry="3.977"/>
<ellipse fill="#F4E52A" cx="953.115" cy="907.138" rx="3.965" ry="3.977"/>
<ellipse fill="#F4E52A" cx="743.08" cy="809.115" rx="3.965" ry="3.977"/>
<ellipse fill="#F4E52A" cx="535.15" cy="1285.115" rx="3.965" ry="3.977"/>
<ellipse fill="#F4E52A" cx="209.115" cy="915.092" rx="3.965" ry="3.977"/>
<ellipse fill="#F4E52A" cx="1149.08" cy="341.115" rx="3.965" ry="3.977"/>
<ellipse opacity="0.3" fill="#F4E52A" cx="1234.08" cy="778.115" rx="3.965" ry="3.977"/>
<ellipse opacity="0.3" fill="#F4E52A" cx="719.115" cy="533.138" rx="3.965" ry="3.977"/>
<ellipse opacity="0.3" fill="#F4E52A" cx="853.185" cy="259.115" rx="3.965" ry="3.977"/>
<ellipse opacity="0.3" fill="#F4E52A" cx="925.15" cy="1131.115" rx="3.965" ry="3.977"/>
<ellipse opacity="0.3" fill="#F4E52A" cx="273.115" cy="1023.138" rx="3.965" ry="3.977"/>
<ellipse opacity="0.1" fill="#F4E52A" cx="1234.115" cy="778.138" rx="3.965" ry="3.977"/>
<ellipse opacity="0.1" fill="#F4E52A" cx="559.15" cy="133.115" rx="3.965" ry="3.977"/>
<ellipse opacity="0.1" fill="#F4E52A" cx="647.115" cy="1391.138" rx="3.965" ry="3.977"/>
<ellipse opacity="0.1" fill="#F4E52A" cx="409.115" cy="1089.138" rx="3.965" ry="3.977"/>
<ellipse opacity="0.1" fill="#F4E52A" cx="1234.115" cy="778.138" rx="3.965" ry="3.977"/>
<ellipse opacity="0.1" fill="#F4E52A" cx="1321.115" cy="1019.162" rx="3.965" ry="3.977"/>
</svg>
