<?xml version="1.0" encoding="utf-8"?>
<!-- Generator: Adobe Illustrator 16.0.2, SVG Export Plug-In . SVG Version: 6.00 Build 0)  -->
<!DOCTYPE svg PUBLIC "-//W3C//DTD SVG 1.1//EN" "http://www.w3.org/Graphics/SVG/1.1/DTD/svg11.dtd">
<svg version="1.1" id="Layer_1" xmlns="http://www.w3.org/2000/svg" xmlns:xlink="http://www.w3.org/1999/xlink" x="0px" y="0px"
	 width="1573.23px" height="1573.23px" viewBox="0 0 1573.23 1573.23" enable-background="new 0 0 1573.23 1573.23"
	 xml:space="preserve">
<rect x="-19.842" y="-15.93" fill="#0F2230" width="1740.352" height="1657.896"/>
<linearGradient id="SVGID_1_" gradientUnits="userSpaceOnUse" x1="905.8962" y1="456.3416" x2="1356.8572" y2="456.3416" gradientTransform="matrix(-0.749 -0.6625 -0.6625 0.749 2691.5222 1644.4833)">
	<stop  offset="0" style="stop-color:#271A61"/>
	<stop  offset="1" style="stop-color:#8B3F94"/>
</linearGradient>
<path fill="url(#SVGID_1_)" d="M2104.374,260.397c-27.427,31.01-24.683,78.281,6.01,105.935
	c-15.195,3.258-29.527,11.218-40.613,23.754c-19.063,21.552-23.551,50.958-14.215,76.177c-0.848,3.632-1.42,7.312-1.723,11.008
	c-30.993-21.841-74.11-17.336-99.815,11.725c-27.582,31.187-24.662,78.833,6.522,106.416c22.125,19.567,52.521,23.769,78.171,13.435
	c3.501,14.473,11.301,28.061,23.3,38.675c11.544,10.209,25.342,16.229,39.545,18.193c-2.322,3.958-4.24,8.083-5.771,12.304
	c-30.999-21.876-74.143-17.382-99.858,11.694c-11.922,13.477-18.135,30.025-18.846,46.699c-1.5,0.253-2.988,0.562-4.478,0.903
	c4.162-20.622-2.46-42.838-19.354-57.781c-25.224-22.307-63.752-19.945-86.061,5.277c-22.307,25.22-19.946,63.747,5.277,86.057
	c2.175,1.924,4.452,3.651,6.805,5.205c-3.688,2.396-7.207,5.122-10.504,8.212c-27.021-7.67-57.258,0.132-77.109,22.577
	c-13.074,14.783-19.284,33.263-18.889,51.55c-18.201,1.844-35.785,10.266-48.857,25.044c-1.229,1.39-2.37,2.816-3.479,4.266
	c-24.09-3.25-49.306,5.183-66.62,24.759c-18.234,20.615-23.128,48.419-15.35,72.868c-19.728-2.936-40.495,3.845-54.691,19.896
	c-0.011,0.012-0.021,0.022-0.028,0.031c-25.229-21.104-62.823-18.418-84.754,6.376c-22.305,25.218-19.943,63.749,5.279,86.06
	c4.074,3.604,8.498,6.553,13.144,8.877c0.007,0.654,0.036,1.308,0.065,1.964c-16.02,0.646-31.76,7.554-43.221,20.513
	c-22.308,25.221-19.947,63.749,5.274,86.059c0.429,0.381,0.874,0.735,1.311,1.103c-0.011,0.01-0.02,0.021-0.029,0.033
	c-13.505,15.271-17.953,35.417-13.773,53.895c-12.224,0.015-24.411,2.974-35.4,8.84c-1.108-1.107-2.246-2.203-3.437-3.254
	c-31.188-27.586-78.831-24.666-106.416,6.521c-6.913,7.815-11.909,16.666-15.022,25.975c-25.212-4.729-52.199,3.53-70.429,24.141
	c-25.942,29.328-24.9,73.203,1.254,101.271c-2.143,19.656,3.447,39.895,16.49,55.854c-10.152,4.248-19.528,10.794-27.309,19.589
	c-15.438,17.453-21.316,40.063-18.033,61.427c-27.918-9.5-60.033-2.042-80.791,21.425c-27.454,31.039-24.68,78.372,6.094,106.016
	c-5.491,8.455-9.048,17.732-10.799,27.25c-1.715-0.201-3.436-0.341-5.155-0.395c-2.108-13.55-8.771-26.469-19.847-36.266
	c-25.221-22.308-63.751-19.947-86.062,5.274c-17.083,19.315-19.681,46.435-8.643,68.096c-6.521,3.728-12.583,8.5-17.941,14.3
	c-21.866-6.234-46.352,0.068-62.423,18.237c-22.193,25.091-19.96,63.353,4.898,85.711c-5.176,3.491-10.01,7.671-14.341,12.566
	c-6.13,6.934-10.744,14.679-13.885,22.835c-3.436-14.684-11.276-28.49-23.431-39.239c-31.188-27.587-78.831-24.664-106.416,6.521
	c-27.584,31.188-24.664,78.829,6.523,106.415c6.781,5.996,14.336,10.547,22.297,13.685c-1.423,7.274-1.769,14.697-1.036,22.029
	c-20.253,0.47-40.26,9.038-54.741,25.41c-15.183,17.165-21.102,39.313-18.178,60.36c-19.534,0.993-38.673,9.522-52.654,25.332
	c-27.584,31.188-24.664,78.83,6.525,106.416h-0.002c-5.181,5.856-9.282,12.293-12.327,19.07c-5.941,3.737-11.47,8.356-16.355,13.881
	c-27.584,31.188-24.661,78.832,6.523,106.416c31.186,27.584,78.825,24.657,106.408-6.529c5.18-5.855,9.284-12.293,12.329-19.07
	c5.943-3.738,11.467-8.355,16.354-13.883c4.93-5.57,8.866-11.672,11.859-18.086c19.594-0.947,38.808-9.479,52.835-25.338
	c4.465-5.047,8.116-10.531,10.993-16.288c25.514,5.161,53.002-3.022,71.484-23.919c19.317-21.842,23.655-51.746,13.821-77.188
	c8.566-4.209,16.477-10.112,23.191-17.705c9.667-10.928,15.571-23.88,17.844-37.276c20.604-0.196,41.045-8.785,55.769-25.434
	c6.709-7.584,11.598-16.145,14.729-25.146c21.6,0.642,43.316-7.951,58.752-25.404c18.009-20.36,23.009-47.73,15.638-71.959
	c2.81-2.365,5.482-4.959,7.989-7.792c15.165-17.146,21.088-39.266,18.185-60.29c26.198,6.229,54.884-1.81,73.969-23.387
	c22.819-25.802,24.743-62.853,7.074-90.505c2.811-2.362,5.485-4.957,7.992-7.788c19.522-22.074,23.747-52.387,13.499-78.002
	c26.674,7.041,56.242-0.853,75.767-22.926c16.854-19.054,22.299-44.246,16.891-67.259c31.186,25.323,77.075,21.772,103.939-8.603
	c16.568-18.732,22.116-43.404,17.158-66.095c6.971-3.987,13.426-9.145,19.042-15.494c13.911-15.729,20.057-35.646,18.733-55.063
	c28.607,11.162,62.357,4.043,83.888-20.297c26.152-29.572,24.866-73.922-1.917-101.955c9.905-4.254,19.055-10.699,26.668-19.31
	c1.547-1.746,2.979-3.553,4.333-5.396c30.604,18.697,71.109,13.378,95.697-14.42c27.585-31.188,24.663-78.83-6.525-106.414
	c-1.38-1.221-2.798-2.354-4.238-3.458c8.402-4.196,16.163-10.021,22.768-17.491c0.178-0.198,0.34-0.41,0.518-0.612
	c0.005,0.005,0.012,0.011,0.015,0.014c31.188,27.586,78.832,24.665,106.414-6.521c27.583-31.187,24.664-78.832-6.523-106.416
	c-0.004-0.002-0.008-0.006-0.011-0.009c20.198-23.21,23.678-55.339,11.35-81.573c1.233,1.254,2.501,2.49,3.839,3.672
	c31.188,27.586,78.832,24.664,106.416-6.522c1.625-1.838,3.139-3.737,4.554-5.686c0.089,0.079,0.172,0.164,0.262,0.241
	c31.188,27.587,78.831,24.665,106.415-6.521c27.585-31.188,24.665-78.829-6.523-106.415c-5.632-4.98-11.807-8.949-18.295-11.957
	c10.64-13.031,16.217-28.644,16.885-44.376c16.465-2.739,32.133-10.924,44.053-24.401c6.471-7.314,11.238-15.543,14.385-24.201
	c30.997,21.877,74.143,17.385,99.862-11.695c20.78-23.495,24.239-56.327,11.351-82.893c17.926-2,35.195-10.395,48.085-24.969
	c6.106-6.903,10.711-14.609,13.854-22.727c27.645,8.91,59.165,1.351,79.639-21.799c17.431-19.706,22.667-45.982,16.297-69.617
	c19.431-30.714,14.289-71.842-13.809-96.694c-12.396-10.962-27.39-17.088-42.689-18.557c2.117-9.539,2.354-19.383,0.744-28.955
	c26.629,7.212,56.22-0.52,75.858-22.407c3.84,13.245,11.336,25.597,22.43,35.407c31.188,27.587,78.832,24.667,106.415-6.52
	c13.935-15.756,20.075-35.712,18.727-55.162c6.091-3.779,11.738-8.481,16.731-14.123c27.587-31.188,24.665-78.831-6.522-106.416
	c-31.188-27.586-78.832-24.665-106.417,6.523c-13.935,15.755-20.07,35.709-18.726,55.159c-5.937,3.688-11.458,8.262-16.358,13.722
	c-3.838-13.244-11.336-25.599-22.427-35.41c-25.313-22.389-61.469-24.681-88.938-8.072c-3.31-4.689-7.188-9.079-11.674-13.045
	c-31.188-27.585-78.832-24.664-106.415,6.522c-0.349,0.394-0.671,0.803-1.011,1.2
	C2167.883,227.483,2128.472,233.151,2104.374,260.397z M1346.399,1517.871c-1.452-2.225-3.023-4.386-4.729-6.473
	c10.15-4.25,19.526-10.795,27.308-19.59c0.033-0.038,0.063-0.075,0.096-0.112c0.248,1.675,0.56,3.342,0.922,4.998
	c-6.971,3.988-13.427,9.144-19.043,15.491C1349.324,1514.027,1347.813,1515.928,1346.399,1517.871z M1379.641,1407.564
	c11.792-0.22,23.51-3.189,34.113-8.848c1.107,1.11,2.244,2.203,3.435,3.255c2.332,2.064,4.767,3.937,7.27,5.659
	c-13.958,3.655-27.028,11.346-37.31,22.971c-0.031,0.038-0.06,0.073-0.093,0.109
	C1385.862,1422.711,1383.381,1414.889,1379.641,1407.564z M2254.997,475.063c-2.648,11.929-2.354,24.332,0.813,36.087
	c-2.64,4.168-4.826,8.521-6.562,13.006c-2.225-0.715-4.469-1.329-6.734-1.837c8.4-14.688,11.396-31.481,9.179-47.643
	C2252.792,474.831,2253.893,474.959,2254.997,475.063z"/>
<linearGradient id="SVGID_2_" gradientUnits="userSpaceOnUse" x1="842.2458" y1="463.0154" x2="1190.656" y2="463.0154" gradientTransform="matrix(-0.749 -0.6625 -0.6625 0.749 2691.5222 1644.4833)">
	<stop  offset="0" style="stop-color:#552C7A"/>
	<stop  offset="1" style="stop-color:#8B3F94"/>
</linearGradient>
<path fill="url(#SVGID_2_)" d="M2202.253,400.586c-20.918,23.65-24.281,56.755-11.103,83.414c-1.323,1.29-2.623,2.62-3.865,4.025
	c-10.845,12.263-16.956,27.068-18.508,42.197c-23.96-3.087-48.983,5.365-66.197,24.826c-27.594,31.194-24.668,78.854,6.529,106.447
	c10.631,9.404,23.177,15.256,36.188,17.662c0.176,10.359,2.486,20.657,6.862,30.207c-1.544,1.473-3.051,3.005-4.489,4.633
	c-10.74,12.144-16.836,26.784-18.461,41.76c-30.18-16.417-68.743-10.525-92.472,16.303c-4.698,5.312-8.489,11.107-11.431,17.193
	c-29.258-12.993-64.745-6.28-87.085,18.978c-8.445,9.546-14.019,20.643-16.81,32.229c-24.389-3.618-50.067,4.762-67.62,24.607
	c-20.599,23.288-24.184,55.747-11.704,82.186c-16.562,2.7-32.329,10.904-44.313,24.454c-27.593,31.198-24.669,78.856,6.526,106.448
	c6.208,5.492,13.068,9.753,20.293,12.842c-21.445-0.499-42.957,8.09-58.282,25.415c-11.638,13.159-17.823,29.245-18.771,45.52
	c-26.714-7.093-56.346,0.795-75.899,22.905c-26.384,29.826-24.85,74.693,2.605,102.691c-20.802,0.043-41.491,8.626-56.357,25.436
	c-13.115,14.829-19.323,33.375-18.891,51.724c-10.38,1.028-20.556,4.205-29.816,9.476c-3.613-5.529-8-10.682-13.187-15.268
	c-22.725-20.1-54.177-23.99-80.256-12.573c-29.614-14.178-66.179-7.747-89.012,18.067c-20.4,23.064-24.103,55.124-12.049,81.425
	c-1.543,1.473-3.048,3.002-4.488,4.629c-7.459,8.437-12.67,18.08-15.713,28.199c-23.723-2.807-48.388,5.659-65.413,24.909
	c-20.969,23.706-24.295,56.916-11.003,83.604c-5.324,3.546-10.283,7.817-14.722,12.834c-10.149,11.479-16.154,25.181-18.159,39.287
	c-17.332,2.324-33.943,10.631-46.438,24.761c-27.596,31.195-24.672,78.854,6.526,106.446c1.505,1.331,3.057,2.568,4.636,3.762
	c-0.056,0.063-0.115,0.124-0.172,0.188c-13.424,15.177-19.608,34.248-18.843,53.014c-25.273-4.807-52.36,3.437-70.643,24.104
	c-19.941,22.547-23.938,53.692-12.847,79.647c-8.674,1.701-17.088,4.928-24.805,9.659c-3.72-5.859-8.289-11.311-13.748-16.139
	c-31.197-27.594-78.854-24.676-106.446,6.521c-5.856,6.617-10.317,13.979-13.446,21.73c-1.021-1.008-2.063-1.999-3.149-2.962
	c-31.197-27.594-78.857-24.675-106.448,6.521c-27.594,31.196-24.671,78.856,6.525,106.45c4.582,4.054,9.526,7.429,14.702,10.171
	c-0.48,0.516-0.974,1.021-1.446,1.555c-12.736,14.4-18.954,32.312-18.909,50.136c-0.063,0.069-0.126,0.133-0.188,0.202
	c-12.881,14.563-19.105,32.715-18.916,50.737c-2.059,0.231-4.104,0.556-6.139,0.955c-30.888-20.727-73.102-15.93-98.422,12.699
	c-27.594,31.193-24.67,78.854,6.527,106.447c6.012,5.317,12.644,9.491,19.618,12.562c0.077,3.979,0.48,7.949,1.182,11.871
	c-13.964,3.657-27.031,11.35-37.313,22.973c-27.594,31.196-24.67,78.856,6.524,106.448c31.198,27.593,78.856,24.67,106.449-6.525
	c15.889-17.964,21.639-41.382,17.718-63.287c13.961-3.659,27.031-11.352,37.312-22.975c2.402-2.715,4.558-5.561,6.497-8.5
	c16.389-2.774,31.978-10.95,43.848-24.368c21.199-23.972,24.364-57.648,10.558-84.484c6.393-3.86,12.319-8.738,17.529-14.628
	c31.194,27.593,78.854,24.669,106.445-6.526c27.594-31.196,24.67-78.854-6.526-106.446c-5.052-4.468-10.541-8.122-16.302-11.001
	c2.02-1.838,3.966-3.795,5.815-5.887c11.589-13.1,17.772-29.101,18.764-45.302c3.118,4.239,6.721,8.226,10.823,11.854
	c31.196,27.592,78.854,24.671,106.448-6.524c19.942-22.548,23.937-53.688,12.844-79.645c15.67-3.08,30.495-11.128,41.895-24.015
	c13.424-15.179,19.604-34.25,18.841-53.012c25.273,4.804,52.359-3.439,70.642-24.107c13.859-15.672,20.017-35.495,18.76-54.845
	c6.166-3.799,11.89-8.55,16.938-14.259c23.713-26.811,24.867-65.763,4.93-93.706c0.938-0.664,1.864-1.35,2.777-2.062
	c30.461,17.852,70.266,12.301,94.542-15.144c3.575-4.043,6.627-8.368,9.183-12.884c22.496,1.483,45.415-7.071,61.507-25.268
	c5.481-6.196,9.737-13.051,12.829-20.261c6.78-3.948,13.063-9.01,18.543-15.209c11.996-13.562,18.216-30.231,18.863-47.015
	c8.225-4.178,15.82-9.926,22.301-17.253c11.051-12.494,17.195-27.628,18.602-43.059c15.144-3.28,29.417-11.229,40.469-23.723
	c13.116-14.829,19.322-33.377,18.893-51.724c18.262-1.811,35.909-10.235,49.025-25.063c26.385-29.829,24.85-74.695-2.605-102.692
	c20.804-0.045,41.493-8.628,56.356-25.434c11.639-13.159,17.826-29.243,18.774-45.517c26.711,7.092,56.344-0.794,75.899-22.905
	c13.017-14.717,19.233-33.093,18.905-51.304c25.885,5.719,54.013-2.397,72.818-23.658c14.52-16.418,20.579-37.39,18.526-57.601
	c20.308-0.432,40.383-9.007,54.9-25.422c15.639-17.68,21.465-40.644,17.909-62.25c21.877,0.892,43.961-7.696,59.599-25.377
	c21.165-23.931,24.354-57.543,10.621-84.357c6.248-3.822,12.041-8.619,17.144-14.39c10.741-12.145,16.838-26.78,18.464-41.762
	c30.178,16.422,68.741,10.528,92.472-16.3c13.225-14.953,19.422-33.689,18.871-52.186c18.424-1.714,36.261-10.151,49.486-25.104
	c27.594-31.198,24.67-78.854-6.526-106.447c-0.329-0.292-0.669-0.56-1-0.846c2.083-3.487,3.873-7.095,5.345-10.797
	c24.705,4.023,50.869-4.312,68.679-24.446c3.415-3.859,6.362-7.979,8.846-12.277c22.849,1.848,46.253-6.712,62.606-25.201
	c15.463-17.482,21.341-40.138,18.027-61.53c27.129,7.861,57.576,0.102,77.532-22.461c16.261-18.387,21.915-42.487,17.437-64.833
	c22.729,1.717,45.959-6.836,62.228-25.228c27.592-31.195,24.668-78.852-6.527-106.444c-31.194-27.592-78.854-24.673-106.446,6.521
	c-11.146,12.604-17.309,27.895-18.642,43.459c-0.742-0.711-1.487-1.417-2.262-2.104c-31.197-27.592-78.856-24.674-106.449,6.522
	c-0.537,0.606-1.039,1.231-1.55,1.846c-29.893-15.198-67.385-8.99-90.633,17.293c-8.75,9.893-14.418,21.439-17.105,33.478
	C2262.727,368.145,2225.419,374.397,2202.253,400.586z M1985.583,933.043c-0.699,0.021-1.396,0.037-2.095,0.078
	c0.029-0.119,0.061-0.237,0.09-0.356C1984.243,932.866,1984.914,932.962,1985.583,933.043z M2336.115,468.8
	c-1.429,0.055-2.857,0.147-4.284,0.282c0.172-0.68,0.347-1.361,0.498-2.047C2333.578,467.663,2334.843,468.249,2336.115,468.8z"/>
<g>
	
		<linearGradient id="SVGID_3_" gradientUnits="userSpaceOnUse" x1="-78.1267" y1="684.9421" x2="-78.1266" y2="811.1814" gradientTransform="matrix(1 0 0 -1 374.1152 976.0737)">
		<stop  offset="0" style="stop-color:#CCDFDB"/>
		<stop  offset="0.1531" style="stop-color:#A2D0D2;stop-opacity:0.8469"/>
		<stop  offset="0.3549" style="stop-color:#73BDC8;stop-opacity:0.6451"/>
		<stop  offset="0.5469" style="stop-color:#4DB0C0;stop-opacity:0.4531"/>
		<stop  offset="0.7238" style="stop-color:#32A6B8;stop-opacity:0.2762"/>
		<stop  offset="0.8803" style="stop-color:#27A0B5;stop-opacity:0.1197"/>
		<stop  offset="1" style="stop-color:#229FB4;stop-opacity:0"/>
	</linearGradient>
	<ellipse opacity="0.4" fill="url(#SVGID_3_)" enable-background="new    " cx="295.989" cy="228.012" rx="64.196" ry="63.12"/>
	<g>
		<g>
			
				<linearGradient id="SVGID_4_" gradientUnits="userSpaceOnUse" x1="-77.3582" y1="1609.1931" x2="-77.3582" y2="1683.2654" gradientTransform="matrix(1 0 0 -1 374.1152 1829.73)">
				<stop  offset="0" style="stop-color:#F8E618"/>
				<stop  offset="0.2197" style="stop-color:#F7E418;stop-opacity:0.7803"/>
				<stop  offset="0.3576" style="stop-color:#F7DD18;stop-opacity:0.6424"/>
				<stop  offset="0.473" style="stop-color:#FBD321;stop-opacity:0.527"/>
				<stop  offset="0.576" style="stop-color:#F7C433;stop-opacity:0.424"/>
				<stop  offset="0.6707" style="stop-color:#FAB149;stop-opacity:0.3293"/>
				<stop  offset="0.7594" style="stop-color:#F59A5F;stop-opacity:0.2406"/>
				<stop  offset="0.8435" style="stop-color:#F37E76;stop-opacity:0.1565"/>
				<stop  offset="0.9218" style="stop-color:#F05F8A;stop-opacity:0.0782"/>
				<stop  offset="0.9966" style="stop-color:#ED3D94;stop-opacity:0.0034"/>
				<stop  offset="1" style="stop-color:#ED3A93;stop-opacity:0"/>
			</linearGradient>
			<path fill="url(#SVGID_4_)" d="M296.757,146.464c-26.153,28.214-14.166,64.579-14.166,64.579
				c2.396,6.408,14.166,9.493,14.166,9.493s11.77-3.085,14.168-9.493C310.925,211.043,322.911,174.678,296.757,146.464z"/>
			
				<linearGradient id="SVGID_5_" gradientUnits="userSpaceOnUse" x1="-77.3591" y1="1611.5564" x2="-77.3591" y2="1665.5779" gradientTransform="matrix(1 0 0 -1 374.1152 1829.73)">
				<stop  offset="0" style="stop-color:#CCDFDB"/>
				<stop  offset="0.1531" style="stop-color:#A2D0D2;stop-opacity:0.8469"/>
				<stop  offset="0.3549" style="stop-color:#73BDC8;stop-opacity:0.6451"/>
				<stop  offset="0.5469" style="stop-color:#4DB0C0;stop-opacity:0.4531"/>
				<stop  offset="0.7238" style="stop-color:#32A6B8;stop-opacity:0.2762"/>
				<stop  offset="0.8803" style="stop-color:#27A0B5;stop-opacity:0.1197"/>
				<stop  offset="1" style="stop-color:#229FB4;stop-opacity:0"/>
			</linearGradient>
			<path fill="url(#SVGID_5_)" d="M296.757,164.152c-19.074,20.577-10.333,47.098-10.333,47.098
				c1.749,4.674,10.333,6.923,10.333,6.923s8.585-2.25,10.333-6.923C307.09,211.25,315.832,184.729,296.757,164.152z"/>
			
				<linearGradient id="SVGID_6_" gradientUnits="userSpaceOnUse" x1="-77.3582" y1="1613.9041" x2="-77.3582" y2="1637.4861" gradientTransform="matrix(1 0 0 -1 374.1152 1829.73)">
				<stop  offset="0" style="stop-color:#FFFFFF"/>
				<stop  offset="0.0617" style="stop-color:#F1F5F5"/>
				<stop  offset="0.2854" style="stop-color:#C1DEDD"/>
				<stop  offset="0.498" style="stop-color:#9ACFD2"/>
				<stop  offset="0.6941" style="stop-color:#7FC1CA"/>
				<stop  offset="0.8674" style="stop-color:#6EBAC4"/>
				<stop  offset="1" style="stop-color:#68B7C2"/>
			</linearGradient>
			<path fill="url(#SVGID_6_)" d="M296.757,192.243c-8.326,8.981-4.51,20.561-4.51,20.561c0.763,2.04,4.51,3.021,4.51,3.021
				s3.748-0.981,4.512-3.021C301.268,212.803,305.085,201.224,296.757,192.243z"/>
		</g>
		
			<linearGradient id="SVGID_7_" gradientUnits="userSpaceOnUse" x1="-221.0339" y1="1494.9333" x2="-117.0784" y2="1494.9333" gradientTransform="matrix(1 0 0 -1 374.1152 1829.73)">
			<stop  offset="0" style="stop-color:#CA7369"/>
			<stop  offset="0.2522" style="stop-color:#C96C61"/>
			<stop  offset="0.6309" style="stop-color:#C6594F"/>
			<stop  offset="1" style="stop-color:#C4413A"/>
		</linearGradient>
		<path fill="url(#SVGID_7_)" d="M203.027,462.207c0,0-102.482-19.388-13.849-254.819c0,0,9.693,103.866,67.858,114.945
			L203.027,462.207z"/>
		
			<linearGradient id="SVGID_8_" gradientUnits="userSpaceOnUse" x1="-38.137" y1="1494.9333" x2="58.3279" y2="1494.9333" gradientTransform="matrix(1 0 0 -1 374.1152 1829.73)">
			<stop  offset="0" style="stop-color:#752A29"/>
			<stop  offset="0.2291" style="stop-color:#7D2C2B"/>
			<stop  offset="0.5743" style="stop-color:#963431"/>
			<stop  offset="0.9909" style="stop-color:#C3413A"/>
			<stop  offset="1" style="stop-color:#C4413A"/>
		</linearGradient>
		<path fill="url(#SVGID_8_)" d="M367.83,462.207c0,0,124.64-13.849,27.697-254.819c0,0-11.078,102.481-59.549,112.176
			L367.83,462.207z"/>
		
			<linearGradient id="SVGID_9_" gradientUnits="userSpaceOnUse" x1="-31.2151" y1="1556.3933" x2="-128.1584" y2="1556.3933" gradientTransform="matrix(1 0 0 -1 374.1152 1829.73)">
			<stop  offset="0" style="stop-color:#752A29"/>
			<stop  offset="0.2291" style="stop-color:#7D2C2B"/>
			<stop  offset="0.5743" style="stop-color:#963431"/>
			<stop  offset="0.9909" style="stop-color:#C3413A"/>
			<stop  offset="1" style="stop-color:#C4413A"/>
		</linearGradient>
		<path fill="url(#SVGID_9_)" d="M245.958,309.868l5.54-55.396c0,0,29.083-34.623,84.479-6.926l6.924,62.32L245.958,309.868
			L245.958,309.868z"/>
		
			<linearGradient id="SVGID_10_" gradientUnits="userSpaceOnUse" x1="-239.843" y1="1123.8005" x2="52.5857" y2="1416.2292" gradientTransform="matrix(1 0 0 -1 374.1152 1829.73)">
			<stop  offset="0" style="stop-color:#CA7369"/>
			<stop  offset="0.2522" style="stop-color:#C96C61"/>
			<stop  offset="0.6309" style="stop-color:#C6594F"/>
			<stop  offset="1" style="stop-color:#C4413A"/>
		</linearGradient>
		<path fill="url(#SVGID_10_)" d="M296.757,847.209c0,0-219.756-43.18-59.107-548.42c0,0,46.202-15.231,59.107-15.231V847.209z"/>
		
			<linearGradient id="SVGID_11_" gradientUnits="userSpaceOnUse" x1="-24.2292" y1="1546.3132" x2="-24.2293" y2="982.5212" gradientTransform="matrix(1 0 0 -1 374.1152 1829.73)">
			<stop  offset="0" style="stop-color:#752A29"/>
			<stop  offset="0.2291" style="stop-color:#7D2C2B"/>
			<stop  offset="0.5743" style="stop-color:#963431"/>
			<stop  offset="0.9909" style="stop-color:#C3413A"/>
			<stop  offset="1" style="stop-color:#C4413A"/>
		</linearGradient>
		<path fill="url(#SVGID_11_)" d="M294,847.209c0,0,212.333-66.474,51.684-549.804c0,0-39.743-15.614-51.684-13.848V847.209z"/>
		
			<linearGradient id="SVGID_12_" gradientUnits="userSpaceOnUse" x1="-101.5598" y1="1488.7009" x2="-58.4739" y2="1488.7009" gradientTransform="matrix(1 0 0 -1 374.1152 1829.73)">
			<stop  offset="0" style="stop-color:#CA7369"/>
			<stop  offset="0.2522" style="stop-color:#C96C61"/>
			<stop  offset="0.6309" style="stop-color:#C6594F"/>
			<stop  offset="1" style="stop-color:#C4413A"/>
		</linearGradient>
		<path fill="url(#SVGID_12_)" d="M296.757,469.132c0,0-54.452-42.932,0-256.206C296.757,212.927,339.248,433.125,296.757,469.132z"
			/>
		
			<linearGradient id="SVGID_13_" gradientUnits="userSpaceOnUse" x1="3.9236" y1="1142.7556" x2="-161.7981" y2="1142.7556" gradientTransform="matrix(1 0 0 -1 374.1152 1829.73)">
			<stop  offset="0" style="stop-color:#752A29"/>
			<stop  offset="0.2291" style="stop-color:#7D2C2B"/>
			<stop  offset="0.5743" style="stop-color:#963431"/>
			<stop  offset="0.9909" style="stop-color:#C3413A"/>
			<stop  offset="1" style="stop-color:#C4413A"/>
		</linearGradient>
		
			<circle fill="#8984A0" stroke="url(#SVGID_13_)" stroke-width="30" stroke-miterlimit="10" cx="295.179" cy="686.975" r="67.861"/>
		<path fill="#F9F9F9" d="M324.991,711.005c-5.807,3.776-12.651,5.958-19.981,5.958c-21.014,0-38.051-17.917-38.051-40.02
			c0-9.198,2.954-17.672,7.913-24.431c-13.45,6.412-22.744,20.134-22.744,36.028c0,22.032,17.86,39.894,39.891,39.894
			C305.72,728.434,317.809,721.528,324.991,711.005z"/>
	</g>
</g>
<g>
	<rect x="1065.122" y="276.828" fill="#D1E8E8" width="190.597" height="90.343"/>
	<polygon fill="#39373C" points="858.314,276.828 922.358,276.828 966.388,326.862 1363.992,326.862 1401.353,276.828 
		1464.061,276.828 1464.061,535.672 1388.01,605.052 1342.645,605.052 973.059,605.052 938.369,605.052 858.314,537.006 	"/>
	<path fill="#DDE6E5" d="M965.054,312.852h73.383l72.051,73.384h102.735l72.05-73.384h80.054v281.526h-24.015v84.057
		c0,0-52.036,160.11-180.123,160.11c0,0-132.091,10.674-174.787-150.771l-1.334-92.063h-20.014V312.852z"/>
	<path opacity="0.2" fill="#1F393A" enable-background="new    " d="M1221.229,399.578l77.385-72.716h38.693l-6.671,330.227
		l-37.359,73.383l-14.009-68.046v-133.76C1279.269,528.666,1222.563,479.634,1221.229,399.578z"/>
	<path opacity="0.2" fill="#1F393A" enable-background="new    " d="M1098.199,399.578l-77.387-72.716h-38.693l6.672,330.227
		l37.359,73.383l14.01-68.046v-133.76C1040.16,528.666,1096.863,479.634,1098.199,399.578z"/>
	<path fill="#39373C" d="M1227.031,578.73v155.438c0,0.971-0.038,1.938-0.107,2.894c-1.994,26.307-31.01,47.17-66.505,47.17
		c-35.5,0-64.508-20.864-66.503-47.17c-0.068-0.956-0.107-1.923-0.107-2.894V578.73c0-1.479,0.085-2.936,0.252-4.38
		c2.952-25.603,31.532-45.685,66.358-45.685c34.822,0,63.409,20.083,66.361,45.685
		C1226.944,575.795,1227.031,577.253,1227.031,578.73z"/>
	<path fill="#1F393A" d="M1099.354,729.43c0,0.925,0.034,1.847,0.098,2.758h-0.098V729.43z"/>
	<path fill="#1F393A" d="M1099.354,577.073h0.229c-0.15,1.377-0.229,2.77-0.229,4.177V577.073z"/>
	<path fill="#50B0C5" d="M1220.844,581.25V729.43c0,0.925-0.033,1.847-0.1,2.758c-1.817,25.079-28.275,44.97-60.646,44.97
		c-32.372,0-58.826-19.891-60.646-44.97c-0.063-0.911-0.098-1.833-0.098-2.758V581.25c0-1.407,0.077-2.8,0.229-4.177
		c2.691-24.405,28.757-43.551,60.515-43.551c31.756,0,57.825,19.146,60.518,43.551
		C1220.765,578.45,1220.844,579.843,1220.844,581.25z"/>
	<ellipse opacity="0.4" fill="#DFE2E3" enable-background="new    " cx="1138.838" cy="706.292" rx="25.058" ry="46.907"/>
	<g>
		
			<linearGradient id="SVGID_14_" gradientUnits="userSpaceOnUse" x1="786.2126" y1="1042.7537" x2="786.2126" y2="1165.5193" gradientTransform="matrix(1 0 0 -1 374.1152 1311.9839)">
			<stop  offset="0" style="stop-color:#2FAAC4"/>
			<stop  offset="0.2331" style="stop-color:#31AAC4;stop-opacity:0.7669"/>
			<stop  offset="0.3793" style="stop-color:#3AA7C5;stop-opacity:0.6207"/>
			<stop  offset="0.5017" style="stop-color:#4DA3C7;stop-opacity:0.4983"/>
			<stop  offset="0.611" style="stop-color:#6297C6;stop-opacity:0.389"/>
			<stop  offset="0.7114" style="stop-color:#7C87BF;stop-opacity:0.2886"/>
			<stop  offset="0.8056" style="stop-color:#9E74B6;stop-opacity:0.1944"/>
			<stop  offset="0.8947" style="stop-color:#C75EAC;stop-opacity:0.1053"/>
			<stop  offset="0.9777" style="stop-color:#ED449F;stop-opacity:0.0223"/>
			<stop  offset="1" style="stop-color:#F23C9B;stop-opacity:0"/>
		</linearGradient>
		<path fill="url(#SVGID_14_)" d="M1183.809,253.497c-3.977,10.62-23.482,15.733-23.482,15.733s-19.507-5.113-23.479-15.733
			c0,0-19.869-60.271,23.479-107.033C1203.675,193.226,1183.809,253.497,1183.809,253.497z"/>
		
			<linearGradient id="SVGID_15_" gradientUnits="userSpaceOnUse" x1="786.2112" y1="1046.6677" x2="786.2112" y2="1136.2029" gradientTransform="matrix(1 0 0 -1 374.1152 1311.9839)">
			<stop  offset="0" style="stop-color:#CCE1DE"/>
			<stop  offset="0.1615" style="stop-color:#9FD2D5;stop-opacity:0.8385"/>
			<stop  offset="0.3613" style="stop-color:#6FBECC;stop-opacity:0.6387"/>
			<stop  offset="0.5513" style="stop-color:#48B0C2;stop-opacity:0.4487"/>
			<stop  offset="0.7265" style="stop-color:#2EA7BB;stop-opacity:0.2735"/>
			<stop  offset="0.8815" style="stop-color:#22A2B7;stop-opacity:0.1185"/>
			<stop  offset="1" style="stop-color:#1FA0B7;stop-opacity:0"/>
		</linearGradient>
		<path fill="url(#SVGID_15_)" d="M1177.451,253.84c-2.896,7.748-17.125,11.476-17.125,11.476s-14.227-3.728-17.125-11.476
			c0,0-14.487-43.955,17.125-78.06C1191.941,209.885,1177.451,253.84,1177.451,253.84z"/>
		
			<linearGradient id="SVGID_16_" gradientUnits="userSpaceOnUse" x1="786.2117" y1="1050.5603" x2="786.2117" y2="1089.6462" gradientTransform="matrix(1 0 0 -1 374.1152 1311.9839)">
			<stop  offset="0" style="stop-color:#FFFFFF"/>
			<stop  offset="0.0526" style="stop-color:#F4F7F7"/>
			<stop  offset="0.2785" style="stop-color:#C3E0DF"/>
			<stop  offset="0.4931" style="stop-color:#9CD1D4"/>
			<stop  offset="0.6911" style="stop-color:#81C4CC"/>
			<stop  offset="0.8661" style="stop-color:#70BCC5"/>
			<stop  offset="1" style="stop-color:#6AB9C3"/>
		</linearGradient>
		<path fill="url(#SVGID_16_)" d="M1167.802,256.415c-1.266,3.38-7.477,5.008-7.477,5.008s-6.209-1.628-7.475-5.008
			c0,0-6.325-19.189,7.475-34.078C1174.128,237.224,1167.802,256.415,1167.802,256.415z"/>
	</g>
	
		<linearGradient id="SVGID_17_" gradientUnits="userSpaceOnUse" x1="785.8206" y1="880.7712" x2="785.8206" y2="1089.6462" gradientTransform="matrix(1 0 0 -1 374.1152 1311.9839)">
		<stop  offset="0" style="stop-color:#CCE1DE"/>
		<stop  offset="0.1615" style="stop-color:#9FD2D5;stop-opacity:0.8385"/>
		<stop  offset="0.3613" style="stop-color:#6FBECC;stop-opacity:0.6387"/>
		<stop  offset="0.5513" style="stop-color:#48B0C2;stop-opacity:0.4487"/>
		<stop  offset="0.7265" style="stop-color:#2EA7BB;stop-opacity:0.2735"/>
		<stop  offset="0.8815" style="stop-color:#22A2B7;stop-opacity:0.1185"/>
		<stop  offset="1" style="stop-color:#1FA0B7;stop-opacity:0"/>
	</linearGradient>
	<ellipse opacity="0.4" fill="url(#SVGID_17_)" enable-background="new    " cx="1159.935" cy="326.774" rx="106.22" ry="104.438"/>
</g>
<path fill="#5E8596" stroke="#000000" stroke-miterlimit="10" d="M729.813,216.012c0,6.627-5.373,12-12,12H454.442
	c-6.627,0-12-5.373-12-12V78.748c0-6.627,5.373-12,12-12h263.371c6.627,0,12,5.373,12,12V216.012z"/>
<ellipse fill="#F1E527" cx="585.121" cy="875.898" rx="5.022" ry="5.037"/>
<ellipse fill="#F1E527" cx="987.885" cy="526.041" rx="5.021" ry="5.037"/>
<ellipse fill="#F1E527" cx="1203.177" cy="1369.474" rx="5.021" ry="5.037"/>
<ellipse fill="#F1E527" cx="455.991" cy="422.195" rx="5.021" ry="5.036"/>
<ellipse fill="#F1E527" cx="1104.396" cy="1055.403" rx="5.021" ry="5.037"/>
<ellipse fill="#F1E527" cx="838.403" cy="931.264" rx="5.022" ry="5.037"/>
<ellipse fill="#F1E527" cx="575.078" cy="1534.079" rx="5.021" ry="5.036"/>
<ellipse fill="#F1E527" cx="1352.568" cy="338.582" rx="5.021" ry="5.037"/>
<ellipse opacity="0.3" fill="#F1E527" enable-background="new    " cx="1460.216" cy="892.006" rx="5.021" ry="5.037"/>
<ellipse opacity="0.3" fill="#F1E527" enable-background="new    " cx="808.055" cy="581.763" rx="5.021" ry="5.036"/>
<ellipse opacity="0.3" fill="#F1E527" enable-background="new    " cx="977.844" cy="234.736" rx="5.021" ry="5.036"/>
<ellipse opacity="0.3" fill="#F1E527" enable-background="new    " cx="1068.98" cy="1339.052" rx="5.021" ry="5.037"/>
<ellipse opacity="0.1" fill="#F1E527" enable-background="new    " cx="1460.26" cy="892.035" rx="5.021" ry="5.037"/>
<ellipse opacity="0.1" fill="#F1E527" enable-background="new    " cx="605.472" cy="75.167" rx="5.021" ry="5.036"/>
<ellipse opacity="0.1" fill="#F1E527" enable-background="new    " cx="415.466" cy="1285.891" rx="5.021" ry="5.036"/>
<ellipse opacity="0.1" fill="#F1E527" enable-background="new    " cx="1460.26" cy="892.035" rx="5.021" ry="5.037"/>
<circle fill="#CFE515" cx="503.291" cy="229.428" r="16.502"/>
<line fill="none" stroke="#F1F700" stroke-miterlimit="10" x1="503.291" y1="229.428" x2="503.291" y2="1086.85"/>
<circle fill="#CFE515" cx="503.291" cy="1086.85" r="16.502"/>
<circle fill="#CFE515" cx="1266.154" cy="597.751" r="16.502"/>
<line fill="none" stroke="#F1F700" stroke-miterlimit="10" x1="1266.154" y1="597.752" x2="1266.154" y2="1295.37"/>
<circle fill="#CFE515" cx="1266.154" cy="1295.37" r="16.502"/>
<linearGradient id="SVGID_18_" gradientUnits="userSpaceOnUse" x1="-629.5745" y1="1046.4158" x2="-178.6848" y2="1046.4158" gradientTransform="matrix(0.6579 0.7531 -0.7531 0.6579 882.7549 -9.9961)">
	<stop  offset="0" style="stop-color:#271A61"/>
	<stop  offset="1" style="stop-color:#8B3F94"/>
</linearGradient>
<path fill="url(#SVGID_18_)" d="M824.701-276.267c0.396-0.337,0.81-0.657,1.205-1.003c31.354-27.393,34.564-75.019,7.172-106.373
	c-3.938-4.51-8.305-8.416-12.975-11.753c16.775-27.368,14.705-63.535-7.527-88.986c-9.743-11.149-22.053-18.724-35.273-22.643
	c5.491-4.867,10.099-10.361,13.823-16.274c19.44,1.465,39.432-4.55,55.272-18.388c31.355-27.395,34.566-75.02,7.17-106.375
	c-27.393-31.355-75.016-34.568-106.372-7.173c-5.672,4.959-10.409,10.578-14.226,16.645c-19.441-1.468-39.435,4.551-55.274,18.39
	c-31.354,27.392-34.565,75.016-7.171,106.374c9.744,11.151,22.049,18.725,35.271,22.644c-22.009,19.506-29.919,49.049-22.87,75.721
	c-9.563-1.667-19.407-1.49-28.959,0.567c-1.376-15.309-7.41-30.34-18.296-42.802c-24.683-28.249-65.776-33.643-96.608-14.399
	c-23.596-6.514-49.903-1.438-69.716,15.871c-23.273,20.332-31.026,51.806-22.284,79.504c-8.136,3.092-15.87,7.649-22.811,13.713
	c-14.652,12.801-23.152,30.021-25.264,47.933c-26.485-13.051-59.339-9.792-82.959,10.844
	c-29.236,25.542-33.993,68.659-12.306,99.789c-8.678,3.093-16.934,7.811-24.288,14.236c-13.552,11.838-21.831,27.455-24.67,43.902
	c-15.737,0.572-31.384,6.054-44.479,16.614c-2.968-6.507-6.898-12.707-11.846-18.369c-27.396-31.356-75.019-34.567-106.372-7.173
	C60.716-127.839,57.504-80.214,84.9-48.859c0.076,0.091,0.161,0.174,0.239,0.263c-1.955,1.403-3.864,2.904-5.711,4.518
	C48.073-16.685,44.859,30.94,72.254,62.297c1.173,1.345,2.401,2.62,3.647,3.861C49.744,53.67,17.594,56.953-5.739,77.01
	c-0.004-0.004-0.008-0.008-0.01-0.012c-27.393-31.354-75.02-34.564-106.374-7.173c-31.354,27.391-34.564,75.014-7.17,106.373
	c0.004,0.002,0.01,0.01,0.015,0.014c-0.204,0.178-0.416,0.337-0.616,0.515c-7.51,6.559-13.383,14.281-17.631,22.66
	c-1.094-1.448-2.22-2.873-3.432-4.262c-27.394-31.355-75.017-34.568-106.373-7.175c-27.947,24.418-33.514,64.891-15.004,95.607
	c-1.852,1.343-3.667,2.764-5.422,4.3c-8.656,7.562-15.158,16.67-19.472,26.55c-27.869-26.954-72.21-28.512-101.941-2.54
	c-24.471,21.381-31.796,55.088-20.809,83.763c-19.409-1.44-39.362,4.582-55.177,18.396c-6.385,5.578-11.58,12.002-15.61,18.947
	c-22.659-5.097-47.364,0.301-66.197,16.754c-30.539,26.68-34.37,72.547-9.236,103.887c-22.979-5.549-48.204-0.259-67.36,16.479
	c-22.192,19.389-30.265,48.906-23.388,75.624c-25.554-10.404-55.891-6.365-78.083,13.021c-2.849,2.488-5.458,5.149-7.839,7.944
	c-27.544-17.837-64.605-16.142-90.546,6.521c-21.692,18.953-29.904,47.588-23.837,73.822c-21.007-3.031-43.161,2.757-60.399,17.816
	c-2.849,2.489-5.458,5.147-7.842,7.94c-24.183-7.519-51.583-2.687-72.053,15.198c-17.547,15.328-26.272,36.992-25.763,58.596
	c-9.023,3.076-17.612,7.913-25.237,14.575c-16.736,14.621-25.449,35.01-25.771,55.612c-13.412,2.188-26.399,8.015-37.386,17.615
	c-7.634,6.669-13.585,14.541-17.847,23.082c-25.381-9.988-55.313-5.835-77.271,13.35c-21.009,18.354-29.36,45.794-24.355,71.338
	c-5.773,2.842-11.28,6.46-16.354,10.895c-15.945,13.931-24.593,33.092-25.66,52.68c-6.433,2.954-12.558,6.854-18.158,11.748
	c-5.557,4.854-10.208,10.35-13.981,16.27c-6.796,3.004-13.259,7.068-19.146,12.213c-31.354,27.393-34.572,75.014-7.179,106.365
	c27.393,31.354,75.018,34.568,106.373,7.176c5.554-4.854,10.207-10.354,13.979-16.271c6.796-3.004,13.257-7.064,19.146-12.21v-0.002
	c27.396,31.358,75.018,34.569,106.374,7.176c15.895-13.886,24.541-32.972,25.652-52.5c21.03,3.054,43.215-2.73,60.472-17.809
	c16.46-14.381,25.15-34.335,25.744-54.585c7.327,0.777,14.752,0.477,22.035-0.901c3.09,7.98,7.593,15.563,13.549,22.38
	c27.394,31.356,75.018,34.567,106.373,7.174c31.353-27.394,34.566-75.018,7.171-106.373c-10.676-12.22-24.434-20.146-39.096-23.671
	c8.176-3.091,15.948-7.656,22.919-13.744c4.923-4.302,9.132-9.109,12.653-14.265c22.208,24.996,60.454,27.463,85.68,5.424
	c18.268-15.961,24.721-40.406,18.619-62.312c5.832-5.323,10.643-11.355,14.409-17.854c21.594,11.172,48.729,8.738,68.147-8.226
	c25.358-22.156,27.953-60.671,5.8-86.028c-9.729-11.133-22.605-17.876-36.144-20.066c-0.043-1.721-0.172-3.441-0.362-5.157
	c9.527-1.693,18.827-5.192,27.314-10.632c27.455,30.94,74.771,34.005,105.977,6.74c23.594-20.614,31.248-52.684,21.918-80.658
	c21.343,3.414,43.987-2.327,61.535-17.657c8.842-7.726,15.444-17.063,19.755-27.189c15.881,13.142,36.084,18.854,55.753,16.833
	c27.908,26.324,71.775,27.636,101.262,1.872c20.722-18.104,29.144-45.04,24.571-70.279c9.328-3.058,18.208-7.999,26.064-14.864
	c31.354-27.395,34.565-75.019,7.169-106.374c-1.043-1.195-2.131-2.341-3.231-3.455c5.934-10.953,8.966-23.124,9.057-35.347
	c18.451,4.292,38.625-0.033,53.978-13.444c0.013-0.011,0.022-0.02,0.032-0.028c0.364,0.438,0.718,0.886,1.095,1.315
	c22.154,25.358,60.668,27.953,86.024,5.801c13.028-11.382,20.032-27.08,20.775-43.094c0.656,0.031,1.31,0.065,1.964,0.076
	c2.296,4.659,5.217,9.103,8.797,13.198c22.155,25.357,60.671,27.954,86.025,5.805c24.927-21.778,27.844-59.355,6.893-84.714
	c0.009-0.009,0.021-0.019,0.031-0.027c16.14-14.1,23.045-34.824,20.231-54.57c24.4,7.929,52.233,3.205,72.961-14.903
	c19.682-17.193,28.268-42.358,25.163-66.468c1.456-1.099,2.892-2.23,4.287-3.451c14.858-12.981,23.389-30.515,25.343-48.704
	c18.284,0.509,36.802-5.59,51.664-18.572c22.566-19.714,30.553-49.904,23.048-76.971c3.108-3.277,5.857-6.78,8.275-10.454
	c1.539,2.361,3.254,4.65,5.163,6.837c22.155,25.359,60.668,27.954,86.022,5.803c25.36-22.154,27.956-60.667,5.803-86.027
	c-14.839-16.984-37.014-23.742-57.661-19.707c0.353-1.485,0.671-2.973,0.932-4.472c16.679-0.609,33.265-6.72,46.813-18.56
	c29.233-25.538,33.99-68.653,12.305-99.786c4.229-1.504,8.366-3.396,12.34-5.694c1.877,14.215,7.812,28.049,17.95,39.656
	c10.541,12.063,24.08,19.945,38.531,23.535c-10.489,25.587-6.476,56.008,12.958,78.25c27.392,31.354,75.021,34.564,106.372,7.174
	c29.219-25.527,33.987-68.616,12.335-99.742c3.697-0.28,7.382-0.831,11.02-1.656c25.162,9.491,54.596,5.183,76.262-13.749
	c12.604-11.009,20.65-25.292,24.001-40.467c27.467,30.86,74.721,33.893,105.897,6.657
	C836.007-206.423,841.914-245.798,824.701-276.267z M-447.754,563.269c6.383-5.577,11.577-12.001,15.607-18.948
	c1.653,0.374,3.318,0.695,4.993,0.954c-0.038,0.031-0.075,0.063-0.113,0.094c-8.843,7.728-15.445,17.063-19.757,27.188
	c-2.076-1.717-4.229-3.303-6.444-4.77C-451.516,566.385-449.606,564.886-447.754,563.269z M-366.062,527.663
	c0.037-0.031,0.073-0.059,0.11-0.092c11.688-10.209,19.457-23.23,23.198-37.168c1.708,2.515,3.563,4.959,5.615,7.304
	c1.043,1.196,2.129,2.341,3.233,3.454c-5.723,10.568-8.765,22.269-9.056,34.061C-350.262,531.437-358.068,528.905-366.062,527.663z
	 M595.238-331.118c-16.146-2.314-32.96,0.576-47.699,8.889c-0.492-2.271-1.094-4.519-1.795-6.746
	c4.495-1.708,8.861-3.868,13.046-6.482c11.735,3.24,24.138,3.61,36.082,1.034C594.969-333.318,595.091-332.216,595.238-331.118z"/>
<linearGradient id="SVGID_19_" gradientUnits="userSpaceOnUse" x1="-693.1624" y1="1053.0994" x2="-344.8801" y2="1053.0994" gradientTransform="matrix(0.6579 0.7531 -0.7531 0.6579 882.7549 -9.9961)">
	<stop  offset="0" style="stop-color:#552C7A"/>
	<stop  offset="1" style="stop-color:#8B3F94"/>
</linearGradient>
<path fill="url(#SVGID_19_)" d="M687.021-371.426c12.054-2.615,23.636-8.211,33.58-16.899
	c26.427-23.088,32.863-60.542,17.847-90.525c0.618-0.507,1.247-1.006,1.855-1.539c31.365-27.402,34.574-75.042,7.175-106.407
	c-0.685-0.778-1.384-1.527-2.092-2.273c15.573-1.238,30.9-7.307,43.573-18.376c31.362-27.399,34.571-75.041,7.172-106.405
	c-27.401-31.363-75.039-34.578-106.402-7.177c-18.489,16.154-27.185,39.333-25.605,62.07c-22.317-4.614-46.452,0.893-64.938,17.04
	c-22.685,19.818-30.63,50.218-22.935,77.395c-21.373-3.444-44.063,2.295-61.64,17.65c-18.59,16.241-27.292,39.594-25.585,62.452
	c-4.313,2.456-8.449,5.379-12.331,8.771c-20.244,17.685-28.737,43.799-24.864,68.527c-3.712,1.448-7.33,3.217-10.83,5.278
	c-0.285-0.333-0.551-0.674-0.841-1.005c-27.4-31.364-75.038-34.579-106.403-7.177c-15.034,13.134-23.581,30.919-25.407,49.333
	c-18.492-0.665-37.266,5.419-52.299,18.552c-26.974,23.566-33.103,62.093-16.864,92.371c-14.99,1.535-29.664,7.541-41.874,18.208
	c-5.801,5.065-10.633,10.831-14.493,17.054c-26.729-13.896-60.362-10.913-84.422,10.106c-17.774,15.527-26.498,37.56-25.74,59.442
	c-21.584-3.688-44.584,1.998-62.357,17.528c-16.504,14.417-25.201,34.438-25.757,54.744c-20.196-2.176-41.206,3.756-57.712,18.174
	C-94.544-35.837-102.832-7.759-97.272,18.16c-18.208-0.438-36.622,5.666-51.418,18.592c-22.23,19.421-30.297,49.005-23.368,75.76
	c-16.279,0.849-32.401,6.938-45.631,18.495c-16.896,14.762-25.605,35.397-25.777,56.201c-27.829-27.626-72.685-29.437-102.674-3.232
	c-14.908,13.023-23.441,30.622-25.364,48.871c-18.343-0.542-36.928,5.552-51.837,18.575c-12.562,10.977-20.597,25.199-23.97,40.323
	c-15.438,1.312-30.609,7.363-43.17,18.338c-7.367,6.436-13.162,13.995-17.39,22.193c-16.785,0.546-33.494,6.663-47.129,18.576
	c-6.232,5.442-11.333,11.692-15.321,18.45c-7.229,3.048-14.108,7.261-20.34,12.704c-18.293,15.98-26.988,38.848-25.642,61.353
	c-4.531,2.527-8.875,5.553-12.939,9.104c-27.591,24.107-33.385,63.879-15.721,94.447c-0.717,0.908-1.408,1.832-2.078,2.765
	c-27.82-20.107-66.779-19.191-93.733,4.356c-5.74,5.016-10.526,10.707-14.362,16.851c-19.34-1.373-39.202,4.662-54.958,18.426
	c-20.778,18.154-29.188,45.188-24.539,70.492c-18.756-0.877-37.865,5.186-53.126,18.518c-12.955,11.318-21.093,26.095-24.269,41.745
	c-25.888-11.251-57.053-7.447-79.722,12.357c-31.363,27.401-34.576,75.042-7.175,106.404c3.604,4.127,7.567,7.753,11.787,10.896
	c-16.207,0.891-32.246,6.978-45.416,18.485c-2.102,1.839-4.071,3.771-5.921,5.779c-2.843-5.777-6.465-11.288-10.901-16.368
	c-27.402-31.363-75.04-34.578-106.404-7.177c-31.363,27.4-34.578,75.041-7.177,106.404c-5.922,5.174-10.836,11.069-14.734,17.438
	c-26.751-13.971-60.448-11.012-84.548,10.042c-13.49,11.788-21.762,27.325-24.637,43.696c-2.952,1.923-5.811,4.06-8.54,6.445
	c-11.686,10.209-19.457,23.231-23.201,37.17c-21.881-4.054-45.333,1.553-63.395,17.331c-31.364,27.399-34.578,75.042-7.176,106.406
	c27.4,31.363,75.042,34.577,106.407,7.176c11.687-10.209,19.457-23.229,23.199-37.171c3.918,0.725,7.886,1.151,11.864,1.254
	c3.028,6.994,7.16,13.65,12.442,19.694c27.399,31.365,75.044,34.58,106.404,7.178c28.783-25.146,33.837-67.328,13.301-98.344
	c0.412-2.03,0.749-4.076,0.992-6.133c18.022,0.301,36.209-5.813,50.853-18.604c0.071-0.063,0.134-0.125,0.205-0.187
	c17.823,0.153,35.771-5.955,50.25-18.604c0.536-0.472,1.045-0.96,1.563-1.438c2.712,5.192,6.056,10.157,10.081,14.765
	c27.402,31.364,75.044,34.578,106.408,7.177c31.364-27.399,34.574-75.041,7.172-106.406c-0.957-1.095-1.94-2.142-2.942-3.169
	c7.771-3.081,15.159-7.497,21.813-13.313c31.365-27.4,34.574-75.038,7.171-106.403c-4.795-5.488-10.217-10.091-16.054-13.848
	c4.779-7.688,8.056-16.08,9.812-24.743c25.888,11.249,57.057,7.442,79.725-12.36c20.779-18.154,29.188-45.19,24.536-70.493
	c18.761,0.881,37.869-5.188,53.128-18.519c0.064-0.057,0.125-0.115,0.188-0.17c1.184,1.586,2.41,3.146,3.732,4.657
	c27.4,31.366,75.042,34.581,106.405,7.177c14.204-12.408,22.612-28.969,25.043-46.286c14.118-1.919,27.857-7.84,39.396-17.918
	c5.043-4.408,9.346-9.341,12.923-14.645c26.607,13.454,59.836,10.332,83.67-10.491c19.354-16.907,27.97-41.521,25.31-65.261
	c10.137-2.979,19.813-8.133,28.294-15.54c1.635-1.431,3.175-2.926,4.655-4.46c26.228,12.214,58.308,8.708,81.497-11.551
	c25.953-22.675,32.607-59.2,18.611-88.9c11.576-26.009,7.878-57.482-12.083-80.331c-4.554-5.213-9.679-9.631-15.187-13.277
	c5.326-9.229,8.565-19.387,9.657-29.76c18.346,0.545,36.929-5.55,51.837-18.572c16.899-14.766,25.609-35.401,25.778-56.201
	c27.83,27.625,72.688,29.434,102.675,3.231c22.229-19.42,30.298-49.002,23.368-75.758c16.279-0.85,32.402-6.938,45.632-18.494
	c17.419-15.22,26.14-36.678,25.771-58.126c3.045,7.243,7.264,14.129,12.719,20.371c27.4,31.363,75.04,34.578,106.406,7.176
	c13.622-11.899,21.922-27.617,24.725-44.161c26.361,12.64,58.842,9.252,82.254-11.203c19.954-17.432,28.491-43.06,25.021-67.47
	c11.604-2.72,22.733-8.225,32.332-16.61c25.395-22.187,32.322-57.63,19.509-86.969c6.104-2.902,11.923-6.658,17.263-11.324
	c26.974-23.563,33.102-62.091,16.868-92.369c14.985-1.534,29.663-7.54,41.872-18.207c1.636-1.428,3.18-2.925,4.659-4.46
	c9.524,4.434,19.807,6.809,30.165,7.048c2.325,13.025,8.102,25.606,17.439,36.295c27.401,31.365,75.044,34.582,106.405,7.179
	c19.566-17.094,28.172-42.065,25.23-66.044c15.139-1.459,29.979-7.479,42.31-18.25c1.414-1.233,2.752-2.524,4.048-3.841
	c26.58,13.342,59.703,10.181,83.48-10.592C695.355-304.23,701.835-341.5,687.021-371.426z M135.52-65.806
	c-0.119,0.03-0.236,0.059-0.357,0.087c0.045-0.697,0.066-1.394,0.092-2.093C135.332-67.143,135.422-66.472,135.52-65.806z
	 M603.371-411.705c-0.685,0.147-1.367,0.319-2.05,0.486c0.146-1.425,0.246-2.854,0.312-4.283
	C602.174-414.226,602.751-412.958,603.371-411.705z"/>
<text transform="matrix(1 0 0 1 137.115 1549.115)" opacity="0.6" stroke="#F9F9F9" stroke-miterlimit="10" font-family="'Myriad-Roman'" font-size="24">FB/hoang.lun.0312</text>
<text transform="matrix(1 0 0 1 29.115 1221.1716)" fill="#F9F9F9" font-family="'TimesNewRomanPSMT'" font-size="48">Viết nội dung trên tên lửa để ngắm bắn</text>
<text transform="matrix(1 0 0 1 488.7888 160.1521)" fill="#FFFFFF" font-family="'TimesNewRomanPSMT'" font-size="48">Nội dung</text>
<text transform="matrix(1 0 0 1 850.3337 1409.115)"><tspan x="0" y="0" fill="#F9F9F9" font-family="'TimesNewRomanPSMT'" font-size="48">Ưu tiên ngắm bắn tên lửa trắng </tspan><tspan x="0" y="57.6" fill="#F9F9F9" font-family="'TimesNewRomanPSMT'" font-size="48">sẽ giúp bạn giải thoát vòng vây</tspan></text>
</svg>
