<?xml version="1.0" encoding="utf-8"?>
<!-- Generator: Adobe Illustrator 16.0.2, SVG Export Plug-In . SVG Version: 6.00 Build 0)  -->
<!DOCTYPE svg PUBLIC "-//W3C//DTD SVG 1.1//EN" "http://www.w3.org/Graphics/SVG/1.1/DTD/svg11.dtd">
<svg version="1.1" id="Layer_1" xmlns="http://www.w3.org/2000/svg" xmlns:xlink="http://www.w3.org/1999/xlink" x="0px" y="0px"
	 width="1573.23px" height="1573.23px" viewBox="0 0 1573.23 1573.23" enable-background="new 0 0 1573.23 1573.23"
	 xml:space="preserve">
<linearGradient id="SVGID_1_" gradientUnits="userSpaceOnUse" x1="508.1357" y1="239.7803" x2="508.1358" y2="469.9473" gradientTransform="matrix(1 0 0 -1 0 510.959)">
	<stop  offset="0" style="stop-color:#CCE1DE"/>
	<stop  offset="0.1531" style="stop-color:#A3D1D5;stop-opacity:0.8469"/>
	<stop  offset="0.3549" style="stop-color:#74C0C9;stop-opacity:0.6451"/>
	<stop  offset="0.5469" style="stop-color:#4FB2C1;stop-opacity:0.4531"/>
	<stop  offset="0.7238" style="stop-color:#34A8BB;stop-opacity:0.2762"/>
	<stop  offset="0.8803" style="stop-color:#25A2B8;stop-opacity:0.1197"/>
	<stop  offset="1" style="stop-color:#1FA0B7;stop-opacity:0"/>
</linearGradient>
<ellipse opacity="0.4" fill="url(#SVGID_1_)" cx="508.136" cy="156.096" rx="117.048" ry="115.084"/>
<g>
	<g>
		
			<linearGradient id="SVGID_2_" gradientUnits="userSpaceOnUse" x1="509.5366" y1="1222.1494" x2="509.5366" y2="1357.2002" gradientTransform="matrix(1 0 0 -1 0 1364.6143)">
			<stop  offset="0" style="stop-color:#FFE610"/>
			<stop  offset="0.2197" style="stop-color:#FFE412;stop-opacity:0.7803"/>
			<stop  offset="0.3576" style="stop-color:#FFDD17;stop-opacity:0.6424"/>
			<stop  offset="0.473" style="stop-color:#FFD324;stop-opacity:0.527"/>
			<stop  offset="0.576" style="stop-color:#FEC435;stop-opacity:0.424"/>
			<stop  offset="0.6707" style="stop-color:#FDB149;stop-opacity:0.3293"/>
			<stop  offset="0.7594" style="stop-color:#FC9A5F;stop-opacity:0.2406"/>
			<stop  offset="0.8435" style="stop-color:#FA7F76;stop-opacity:0.1565"/>
			<stop  offset="0.9218" style="stop-color:#F7608A;stop-opacity:0.0782"/>
			<stop  offset="0.9966" style="stop-color:#F23E9B;stop-opacity:0.0034"/>
			<stop  offset="1" style="stop-color:#F23C9B;stop-opacity:0"/>
		</linearGradient>
		<path fill="url(#SVGID_2_)" d="M509.538,7.413c-47.687,51.441-25.83,117.744-25.83,117.744c4.37,11.684,25.83,17.308,25.83,17.308
			s21.458-5.624,25.829-17.308C535.367,125.157,557.222,58.854,509.538,7.413z"/>
		
			<linearGradient id="SVGID_3_" gradientUnits="userSpaceOnUse" x1="509.5366" y1="1226.457" x2="509.5366" y2="1324.9521" gradientTransform="matrix(1 0 0 -1 0 1364.6143)">
			<stop  offset="0" style="stop-color:#CCE1DE"/>
			<stop  offset="0.1531" style="stop-color:#A3D1D5;stop-opacity:0.8469"/>
			<stop  offset="0.3549" style="stop-color:#74C0C9;stop-opacity:0.6451"/>
			<stop  offset="0.5469" style="stop-color:#4FB2C1;stop-opacity:0.4531"/>
			<stop  offset="0.7238" style="stop-color:#34A8BB;stop-opacity:0.2762"/>
			<stop  offset="0.8803" style="stop-color:#25A2B8;stop-opacity:0.1197"/>
			<stop  offset="1" style="stop-color:#1FA0B7;stop-opacity:0"/>
		</linearGradient>
		<path fill="url(#SVGID_3_)" d="M509.538,39.662c-34.779,37.518-18.839,85.873-18.839,85.873
			c3.188,8.521,18.839,12.622,18.839,12.622s15.65-4.102,18.837-12.622C528.375,125.535,544.316,77.18,509.538,39.662z"/>
		
			<linearGradient id="SVGID_4_" gradientUnits="userSpaceOnUse" x1="509.5366" y1="1230.7383" x2="509.5366" y2="1273.7334" gradientTransform="matrix(1 0 0 -1 0 1364.6143)">
			<stop  offset="0" style="stop-color:#FFFFFF"/>
			<stop  offset="0.0617" style="stop-color:#F0F8F8"/>
			<stop  offset="0.2854" style="stop-color:#C1E1E4"/>
			<stop  offset="0.498" style="stop-color:#9BD0D5"/>
			<stop  offset="0.6941" style="stop-color:#80C3CB"/>
			<stop  offset="0.8674" style="stop-color:#70BCC5"/>
			<stop  offset="1" style="stop-color:#6AB9C3"/>
		</linearGradient>
		<path fill="url(#SVGID_4_)" d="M509.538,90.88c-15.182,16.375-8.224,37.486-8.224,37.486c1.392,3.719,8.224,5.51,8.224,5.51
			s6.831-1.791,8.223-5.51C517.76,128.366,524.719,107.255,509.538,90.88z"/>
	</g>
	
		<linearGradient id="SVGID_5_" gradientUnits="userSpaceOnUse" x1="247.5762" y1="1013.8193" x2="437.1177" y2="1013.8193" gradientTransform="matrix(1 0 0 -1 0 1364.6143)">
		<stop  offset="0" style="stop-color:#CA7369"/>
		<stop  offset="0.2522" style="stop-color:#C96C61"/>
		<stop  offset="0.6309" style="stop-color:#C7594F"/>
		<stop  offset="1" style="stop-color:#C4413A"/>
	</linearGradient>
	<path fill="url(#SVGID_5_)" d="M338.641,583.099c0,0-186.853-35.35-25.25-464.608c0,0,17.676,189.378,123.727,209.579
		L338.641,583.099z"/>
	
		<linearGradient id="SVGID_6_" gradientUnits="userSpaceOnUse" x1="581.0454" y1="1013.8193" x2="756.9282" y2="1013.8193" gradientTransform="matrix(1 0 0 -1 0 1364.6143)">
		<stop  offset="0" style="stop-color:#752A29"/>
		<stop  offset="0.2291" style="stop-color:#7D2C2B"/>
		<stop  offset="0.5743" style="stop-color:#963431"/>
		<stop  offset="0.9909" style="stop-color:#C3413A"/>
		<stop  offset="1" style="stop-color:#C4413A"/>
	</linearGradient>
	<path fill="url(#SVGID_6_)" d="M639.122,583.099c0,0,227.251-25.25,50.499-464.608c0,0-20.199,186.854-108.575,204.528
		L639.122,583.099z"/>
	
		<linearGradient id="SVGID_7_" gradientUnits="userSpaceOnUse" x1="593.6694" y1="1125.877" x2="416.9165" y2="1125.877" gradientTransform="matrix(1 0 0 -1 0 1364.6143)">
		<stop  offset="0" style="stop-color:#752A29"/>
		<stop  offset="0.2291" style="stop-color:#7D2C2B"/>
		<stop  offset="0.5743" style="stop-color:#963431"/>
		<stop  offset="0.9909" style="stop-color:#C3413A"/>
		<stop  offset="1" style="stop-color:#C4413A"/>
	</linearGradient>
	<path fill="url(#SVGID_7_)" d="M416.917,305.343l10.1-101.001c0,0,53.025-63.127,154.028-12.626l12.625,113.627H416.917z"/>
	
		<linearGradient id="SVGID_8_" gradientUnits="userSpaceOnUse" x1="213.2832" y1="337.1426" x2="746.4624" y2="870.3218" gradientTransform="matrix(1 0 0 -1 0 1364.6143)">
		<stop  offset="0" style="stop-color:#CA7369"/>
		<stop  offset="0.2522" style="stop-color:#C96C61"/>
		<stop  offset="0.6309" style="stop-color:#C7594F"/>
		<stop  offset="1" style="stop-color:#C4413A"/>
	</linearGradient>
	<path fill="url(#SVGID_8_)" d="M509.538,1285.061c0,0-400.676-78.729-107.771-999.918c0,0,84.239-27.774,107.771-27.774V1285.061z"
		/>
	
		<linearGradient id="SVGID_9_" gradientUnits="userSpaceOnUse" x1="606.4028" y1="1107.501" x2="606.4028" y2="79.5537" gradientTransform="matrix(1 0 0 -1 0 1364.6143)">
		<stop  offset="0" style="stop-color:#752A29"/>
		<stop  offset="0.2291" style="stop-color:#7D2C2B"/>
		<stop  offset="0.5743" style="stop-color:#963431"/>
		<stop  offset="0.9909" style="stop-color:#C3413A"/>
		<stop  offset="1" style="stop-color:#C4413A"/>
	</linearGradient>
	<path fill="url(#SVGID_9_)" d="M504.509,1285.061c0,0,387.139-121.201,94.233-1002.442c0,0-72.463-28.468-94.233-25.25V1285.061z"
		/>
	
		<linearGradient id="SVGID_10_" gradientUnits="userSpaceOnUse" x1="465.4116" y1="1002.457" x2="543.9692" y2="1002.457" gradientTransform="matrix(1 0 0 -1 0 1364.6143)">
		<stop  offset="0" style="stop-color:#CA7369"/>
		<stop  offset="0.2522" style="stop-color:#C96C61"/>
		<stop  offset="0.6309" style="stop-color:#C7594F"/>
		<stop  offset="1" style="stop-color:#C4413A"/>
	</linearGradient>
	<path fill="url(#SVGID_10_)" d="M509.538,595.723c0,0-99.283-78.275,0-467.132C509.538,128.591,587.008,530.073,509.538,595.723z"
		/>
	
		<linearGradient id="SVGID_11_" gradientUnits="userSpaceOnUse" x1="645.3862" y1="371.7012" x2="367.9312" y2="371.7011" gradientTransform="matrix(1 0 0 -1 0 1364.6143)">
		<stop  offset="0" style="stop-color:#752A29"/>
		<stop  offset="0.2291" style="stop-color:#7D2C2B"/>
		<stop  offset="0.5743" style="stop-color:#963431"/>
		<stop  offset="0.9909" style="stop-color:#C3413A"/>
		<stop  offset="1" style="stop-color:#C4413A"/>
	</linearGradient>
	<circle fill="#8984A0" stroke="url(#SVGID_11_)" stroke-width="30" stroke-miterlimit="10" cx="506.66" cy="992.912" r="123.728"/>
	<path fill="#F9F9F9" d="M561.014,1036.724c-10.587,6.887-23.067,10.861-36.432,10.861c-38.314,0-69.376-32.667-69.376-72.964
		c0-16.772,5.385-32.222,14.428-44.544c-24.523,11.689-41.468,36.709-41.468,65.688c0,40.173,32.564,72.737,72.73,72.737
		C525.878,1068.502,547.919,1055.91,561.014,1036.724z"/>
</g>
<g opacity="0.4">
	<path fill="#101010" d="M941.418,861.945c0,0-186.852-35.35-25.25-464.608c0,0,17.676,189.378,123.728,209.579L941.418,861.945z"/>
	<path fill="#101010" d="M1241.899,861.945c0,0,227.252-25.25,50.499-464.608c0,0-20.199,186.854-108.575,204.528L1241.899,861.945z
		"/>
	<path fill="#101010" d="M1019.695,584.189l10.1-101.001c0,0,53.025-63.127,154.028-12.626l12.625,113.627H1019.695z"/>
	<path fill="#101010" d="M1112.315,1563.907c0,0-400.677-78.729-107.771-999.918c0,0,84.239-27.774,107.771-27.774V1563.907z"/>
	<path fill="#101010" d="M1107.287,1563.907c0,0,387.139-121.201,94.233-1002.442c0,0-72.463-28.468-94.233-25.25V1563.907z"/>
	<path fill="#101010" d="M1112.315,874.57c0,0-99.283-78.275,0-467.133C1112.315,407.438,1189.786,808.92,1112.315,874.57z"/>
	<path fill="#101010" d="M1163.792,1315.57c-10.587,6.887-23.067,10.861-36.432,10.861c-38.314,0-69.376-32.667-69.376-72.964
		c0-16.772,5.385-32.222,14.428-44.544c-24.523,11.689-41.468,36.709-41.468,65.688c0,40.173,32.563,72.737,72.73,72.737
		C1128.656,1347.349,1150.697,1334.757,1163.792,1315.57z"/>
</g>
</svg>
